G04 #@! TF.GenerationSoftware,KiCad,Pcbnew,(5.1.6)-1*
G04 #@! TF.CreationDate,2020-07-19T17:34:05+08:00*
G04 #@! TF.ProjectId,ESP32GW,45535033-3247-4572-9e6b-696361645f70,rev?*
G04 #@! TF.SameCoordinates,Original*
G04 #@! TF.FileFunction,Paste,Top*
G04 #@! TF.FilePolarity,Positive*
%FSLAX46Y46*%
G04 Gerber Fmt 4.6, Leading zero omitted, Abs format (unit mm)*
G04 Created by KiCad (PCBNEW (5.1.6)-1) date 2020-07-19 17:34:05*
%MOMM*%
%LPD*%
G01*
G04 APERTURE LIST*
%ADD10O,0.900000X2.200000*%
%ADD11O,0.900000X2.000000*%
%ADD12O,2.200000X0.900000*%
%ADD13R,5.000000X5.000000*%
%ADD14O,2.400000X1.200000*%
%ADD15R,2.400000X2.800000*%
%ADD16O,1.800000X0.600000*%
%ADD17O,2.200000X1.200000*%
%ADD18R,0.930000X0.980000*%
%ADD19R,1.160000X1.470000*%
%ADD20R,0.980000X0.930000*%
%ADD21R,1.150000X0.650000*%
%ADD22R,1.800000X1.350000*%
%ADD23R,2.000000X2.000000*%
%ADD24R,4.000000X2.000000*%
%ADD25O,2.500000X1.500000*%
%ADD26O,0.800000X2.000000*%
%ADD27R,1.500000X1.900000*%
%ADD28R,0.400000X1.800000*%
%ADD29R,0.700000X1.250000*%
%ADD30R,1.270000X5.000000*%
%ADD31R,1.350000X4.200000*%
%ADD32R,2.200000X1.200000*%
%ADD33R,6.499990X6.000000*%
%ADD34R,1.250000X0.700000*%
G04 APERTURE END LIST*
D10*
X122814700Y-97675020D03*
X124084700Y-97675020D03*
X125354700Y-97675020D03*
X126624700Y-97675020D03*
X127894700Y-97675020D03*
X129164700Y-97675020D03*
X130434700Y-97675020D03*
D11*
X131704700Y-97675020D03*
D10*
X132974700Y-97675020D03*
X134244700Y-97675020D03*
X135514700Y-97675020D03*
X136784700Y-97675020D03*
X138054700Y-97675020D03*
X139324700Y-97675020D03*
D12*
X140624700Y-100760020D03*
X140624700Y-102030020D03*
X140624700Y-110920020D03*
X140624700Y-112190020D03*
D10*
X139324700Y-115275020D03*
X138054700Y-115275020D03*
X136784700Y-115275020D03*
X135514700Y-115275020D03*
X134244700Y-115275020D03*
X132974700Y-115275020D03*
X131704700Y-115275020D03*
X130434700Y-115275020D03*
D11*
X129164700Y-115275020D03*
D10*
X127894700Y-115275020D03*
X126624700Y-115275020D03*
X125354700Y-115275020D03*
X124084700Y-115275020D03*
X122814700Y-115275020D03*
D13*
X130314700Y-107475020D03*
D14*
X165694900Y-98018120D03*
X149694900Y-98018120D03*
X165694900Y-96018120D03*
X165694900Y-94018120D03*
X165694900Y-92018120D03*
X165694900Y-90018120D03*
X149694900Y-96018120D03*
X149694900Y-94018120D03*
X149694900Y-92018120D03*
X149694900Y-90018120D03*
X149694900Y-84018120D03*
D15*
X168079420Y-80624680D03*
X163119420Y-80624680D03*
D16*
X123430680Y-79885540D03*
X123430680Y-81155540D03*
X123430680Y-82425540D03*
X123430680Y-83695540D03*
X123430680Y-84965540D03*
X123430680Y-86235540D03*
X123430680Y-87505540D03*
X123430680Y-88775540D03*
X128630680Y-88775540D03*
X128630680Y-87505540D03*
X128630680Y-86235540D03*
X128630680Y-84965540D03*
X128630680Y-83695540D03*
X128630680Y-82425540D03*
X128630680Y-81155540D03*
X128630680Y-79885540D03*
D17*
X150190340Y-96026220D03*
X150190340Y-94026220D03*
X150190340Y-92026220D03*
X150190340Y-90026220D03*
X150190340Y-88026220D03*
X150190340Y-86026220D03*
X150190340Y-84026220D03*
X169090340Y-84026220D03*
X169090340Y-96026220D03*
X169090340Y-98026220D03*
D18*
X157881320Y-80883760D03*
X156341320Y-80883760D03*
D19*
X143071120Y-94584520D03*
X144851120Y-94584520D03*
D20*
X120416320Y-83712560D03*
X120416320Y-85252560D03*
D18*
X131071620Y-82859880D03*
X132611620Y-82859880D03*
X132623560Y-86669880D03*
X131083560Y-86669880D03*
X132624320Y-84777580D03*
X131084320Y-84777580D03*
X131096640Y-88539320D03*
X132636640Y-88539320D03*
D20*
X135209280Y-91396440D03*
X135209280Y-92936440D03*
D21*
X139004040Y-77363320D03*
X139004040Y-75463320D03*
X136054040Y-76413320D03*
D19*
X138905980Y-73192640D03*
X137125980Y-73192640D03*
D15*
X161207140Y-106801920D03*
X156247140Y-106801920D03*
X139230720Y-91059000D03*
X144190720Y-91059000D03*
D22*
X144458680Y-87530940D03*
X141838680Y-87530940D03*
X144086580Y-77274420D03*
X141466580Y-77274420D03*
D23*
X158402020Y-78549500D03*
D24*
X153302020Y-78549500D03*
D25*
X153631900Y-88244680D03*
D26*
X156456380Y-101328220D03*
X157726380Y-101328220D03*
X158996380Y-101328220D03*
X160266380Y-101328220D03*
X161536380Y-101328220D03*
X162806380Y-101328220D03*
X164076380Y-101328220D03*
X165346380Y-101328220D03*
D18*
X125730000Y-119049800D03*
X127270000Y-119049800D03*
X151059920Y-106267958D03*
X152599920Y-106267958D03*
X152610080Y-108076438D03*
X151070080Y-108076438D03*
X152612620Y-109877298D03*
X151072620Y-109877298D03*
X151077320Y-111675618D03*
X152617320Y-111675618D03*
D27*
X129551480Y-72377100D03*
D28*
X131201480Y-75577100D03*
X131851480Y-75577100D03*
X129251480Y-75577100D03*
X129901480Y-75577100D03*
X130551480Y-75577100D03*
D27*
X131551480Y-72377100D03*
D29*
X148277620Y-121309760D03*
X146377620Y-121309760D03*
X147327620Y-123809760D03*
D18*
X146464020Y-118996460D03*
X148004020Y-118996460D03*
D30*
X158440540Y-74494340D03*
D31*
X155615540Y-74094340D03*
X161265540Y-74094340D03*
D15*
X161184280Y-110848140D03*
X156224280Y-110848140D03*
D32*
X144624820Y-84685200D03*
D33*
X137624820Y-82323940D03*
D32*
X144620650Y-79962650D03*
D34*
X133353180Y-92151240D03*
X130853180Y-93101240D03*
X130853180Y-91201240D03*
X125026740Y-92984360D03*
X125026740Y-91084360D03*
X122526740Y-92034360D03*
D18*
X138849100Y-87624920D03*
X137309100Y-87624920D03*
D20*
X132582920Y-79379700D03*
X132582920Y-80919700D03*
X141069060Y-73588500D03*
X141069060Y-75128500D03*
D18*
X130789680Y-118996460D03*
X129249680Y-118996460D03*
X132693920Y-118988840D03*
X134233920Y-118988840D03*
X143052040Y-118999000D03*
X144592040Y-118999000D03*
X139590400Y-118999000D03*
X141130400Y-118999000D03*
X136161020Y-119009160D03*
X137701020Y-119009160D03*
X127147320Y-92824300D03*
X128687320Y-92824300D03*
X127137160Y-90810080D03*
X128677160Y-90810080D03*
M02*
