G04 #@! TF.GenerationSoftware,KiCad,Pcbnew,(5.1.6)-1*
G04 #@! TF.CreationDate,2020-07-19T17:34:05+08:00*
G04 #@! TF.ProjectId,ESP32GW,45535033-3247-4572-9e6b-696361645f70,rev?*
G04 #@! TF.SameCoordinates,Original*
G04 #@! TF.FileFunction,Soldermask,Bot*
G04 #@! TF.FilePolarity,Negative*
%FSLAX46Y46*%
G04 Gerber Fmt 4.6, Leading zero omitted, Abs format (unit mm)*
G04 Created by KiCad (PCBNEW (5.1.6)-1) date 2020-07-19 17:34:05*
%MOMM*%
%LPD*%
G01*
G04 APERTURE LIST*
%ADD10C,0.100000*%
G04 APERTURE END LIST*
D10*
G36*
X128786737Y-125260649D02*
G01*
X128889672Y-125270787D01*
X129087786Y-125330885D01*
X129087789Y-125330886D01*
X129184615Y-125382641D01*
X129270369Y-125428477D01*
X129430405Y-125559815D01*
X129561743Y-125719851D01*
X129570436Y-125736115D01*
X129659334Y-125902431D01*
X129659335Y-125902434D01*
X129719433Y-126100548D01*
X129739725Y-126306580D01*
X129719433Y-126512612D01*
X129676562Y-126653936D01*
X129659334Y-126710729D01*
X129607579Y-126807555D01*
X129561743Y-126893309D01*
X129430405Y-127053345D01*
X129270369Y-127184683D01*
X129184615Y-127230519D01*
X129087789Y-127282274D01*
X129087786Y-127282275D01*
X128889672Y-127342373D01*
X128786737Y-127352511D01*
X128735271Y-127357580D01*
X127632009Y-127357580D01*
X127580543Y-127352511D01*
X127477608Y-127342373D01*
X127279494Y-127282275D01*
X127279491Y-127282274D01*
X127182665Y-127230519D01*
X127096911Y-127184683D01*
X126936875Y-127053345D01*
X126805537Y-126893309D01*
X126759701Y-126807555D01*
X126707946Y-126710729D01*
X126690718Y-126653936D01*
X126647847Y-126512612D01*
X126627555Y-126306580D01*
X126647847Y-126100548D01*
X126707945Y-125902434D01*
X126707946Y-125902431D01*
X126796844Y-125736115D01*
X126805537Y-125719851D01*
X126936875Y-125559815D01*
X127096911Y-125428477D01*
X127182665Y-125382641D01*
X127279491Y-125330886D01*
X127279494Y-125330885D01*
X127477608Y-125270787D01*
X127580543Y-125260649D01*
X127632009Y-125255580D01*
X128735271Y-125255580D01*
X128786737Y-125260649D01*
G37*
G36*
X151631081Y-125863114D02*
G01*
X151731355Y-125904649D01*
X151731356Y-125904650D01*
X151821602Y-125964950D01*
X151898350Y-126041698D01*
X151898351Y-126041700D01*
X151958651Y-126131945D01*
X152000186Y-126232219D01*
X152021360Y-126338670D01*
X152021360Y-126447210D01*
X152000186Y-126553661D01*
X151958651Y-126653935D01*
X151958650Y-126653936D01*
X151898350Y-126744182D01*
X151821602Y-126820930D01*
X151776172Y-126851285D01*
X151731355Y-126881231D01*
X151631081Y-126922766D01*
X151524630Y-126943940D01*
X151416090Y-126943940D01*
X151309639Y-126922766D01*
X151209365Y-126881231D01*
X151164548Y-126851285D01*
X151119118Y-126820930D01*
X151042370Y-126744182D01*
X150982070Y-126653936D01*
X150982069Y-126653935D01*
X150940534Y-126553661D01*
X150919360Y-126447210D01*
X150919360Y-126338670D01*
X150940534Y-126232219D01*
X150982069Y-126131945D01*
X151042369Y-126041700D01*
X151042370Y-126041698D01*
X151119118Y-125964950D01*
X151209364Y-125904650D01*
X151209365Y-125904649D01*
X151309639Y-125863114D01*
X151416090Y-125841940D01*
X151524630Y-125841940D01*
X151631081Y-125863114D01*
G37*
G36*
X125632581Y-125736114D02*
G01*
X125732855Y-125777649D01*
X125732856Y-125777650D01*
X125823102Y-125837950D01*
X125899850Y-125914698D01*
X125899851Y-125914700D01*
X125960151Y-126004945D01*
X126001686Y-126105219D01*
X126022860Y-126211670D01*
X126022860Y-126320210D01*
X126001686Y-126426661D01*
X125960151Y-126526935D01*
X125960150Y-126526936D01*
X125899850Y-126617182D01*
X125823102Y-126693930D01*
X125797965Y-126710726D01*
X125732855Y-126754231D01*
X125632581Y-126795766D01*
X125526130Y-126816940D01*
X125417590Y-126816940D01*
X125311139Y-126795766D01*
X125210865Y-126754231D01*
X125145755Y-126710726D01*
X125120618Y-126693930D01*
X125043870Y-126617182D01*
X124983570Y-126526936D01*
X124983569Y-126526935D01*
X124942034Y-126426661D01*
X124920860Y-126320210D01*
X124920860Y-126211670D01*
X124942034Y-126105219D01*
X124983569Y-126004945D01*
X125043869Y-125914700D01*
X125043870Y-125914698D01*
X125120618Y-125837950D01*
X125210864Y-125777650D01*
X125210865Y-125777649D01*
X125311139Y-125736114D01*
X125417590Y-125714940D01*
X125526130Y-125714940D01*
X125632581Y-125736114D01*
G37*
G36*
X152879052Y-121934909D02*
G01*
X152973491Y-121963557D01*
X153060527Y-122010078D01*
X153136815Y-122072685D01*
X153199422Y-122148973D01*
X153245943Y-122236008D01*
X153274591Y-122330447D01*
X153281840Y-122404048D01*
X153281840Y-123353272D01*
X153274591Y-123426873D01*
X153245943Y-123521312D01*
X153199422Y-123608347D01*
X153136815Y-123684635D01*
X153060527Y-123747242D01*
X152973492Y-123793763D01*
X152879053Y-123822411D01*
X152780840Y-123832084D01*
X152682628Y-123822411D01*
X152588189Y-123793763D01*
X152501154Y-123747242D01*
X152424866Y-123684635D01*
X152362259Y-123608347D01*
X152315738Y-123521312D01*
X152287090Y-123426873D01*
X152279841Y-123353272D01*
X152279841Y-123353270D01*
X152279840Y-123353260D01*
X152279840Y-122404049D01*
X152287089Y-122330448D01*
X152315737Y-122236009D01*
X152362258Y-122148973D01*
X152424865Y-122072685D01*
X152501153Y-122010078D01*
X152588188Y-121963557D01*
X152682627Y-121934909D01*
X152780840Y-121925236D01*
X152879052Y-121934909D01*
G37*
G36*
X154149052Y-121934909D02*
G01*
X154243491Y-121963557D01*
X154330527Y-122010078D01*
X154406815Y-122072685D01*
X154469422Y-122148973D01*
X154515943Y-122236008D01*
X154544591Y-122330447D01*
X154551840Y-122404048D01*
X154551840Y-123353272D01*
X154544591Y-123426873D01*
X154515943Y-123521312D01*
X154469422Y-123608347D01*
X154406815Y-123684635D01*
X154330527Y-123747242D01*
X154243492Y-123793763D01*
X154149053Y-123822411D01*
X154050840Y-123832084D01*
X153952628Y-123822411D01*
X153858189Y-123793763D01*
X153771154Y-123747242D01*
X153694866Y-123684635D01*
X153632259Y-123608347D01*
X153585738Y-123521312D01*
X153557090Y-123426873D01*
X153549841Y-123353272D01*
X153549841Y-123353270D01*
X153549840Y-123353260D01*
X153549840Y-122404049D01*
X153557089Y-122330448D01*
X153585737Y-122236009D01*
X153632258Y-122148973D01*
X153694865Y-122072685D01*
X153771153Y-122010078D01*
X153858188Y-121963557D01*
X153952627Y-121934909D01*
X154050840Y-121925236D01*
X154149052Y-121934909D01*
G37*
G36*
X164309052Y-121934909D02*
G01*
X164403491Y-121963557D01*
X164490527Y-122010078D01*
X164566815Y-122072685D01*
X164629422Y-122148973D01*
X164675943Y-122236008D01*
X164704591Y-122330447D01*
X164711840Y-122404048D01*
X164711840Y-123353272D01*
X164704591Y-123426873D01*
X164675943Y-123521312D01*
X164629422Y-123608347D01*
X164566815Y-123684635D01*
X164490527Y-123747242D01*
X164403492Y-123793763D01*
X164309053Y-123822411D01*
X164210840Y-123832084D01*
X164112628Y-123822411D01*
X164018189Y-123793763D01*
X163931154Y-123747242D01*
X163854866Y-123684635D01*
X163792259Y-123608347D01*
X163745738Y-123521312D01*
X163717090Y-123426873D01*
X163709841Y-123353272D01*
X163709841Y-123353270D01*
X163709840Y-123353260D01*
X163709840Y-122404049D01*
X163717089Y-122330448D01*
X163745737Y-122236009D01*
X163792258Y-122148973D01*
X163854865Y-122072685D01*
X163931153Y-122010078D01*
X164018188Y-121963557D01*
X164112627Y-121934909D01*
X164210840Y-121925236D01*
X164309052Y-121934909D01*
G37*
G36*
X132975548Y-121659525D02*
G01*
X133051043Y-121682426D01*
X133126539Y-121705327D01*
X133175009Y-121731235D01*
X133265691Y-121779705D01*
X133308931Y-121815192D01*
X133387659Y-121879801D01*
X133432884Y-121934909D01*
X133487755Y-122001769D01*
X133536225Y-122092451D01*
X133562133Y-122140921D01*
X133584071Y-122213241D01*
X133607935Y-122291912D01*
X133612866Y-122341971D01*
X133623401Y-122448934D01*
X133607935Y-122605956D01*
X133562133Y-122756947D01*
X133552231Y-122775472D01*
X133487755Y-122896099D01*
X133412739Y-122987505D01*
X133144965Y-123255279D01*
X133053559Y-123330295D01*
X132962877Y-123378765D01*
X132914407Y-123404673D01*
X132841222Y-123426873D01*
X132763416Y-123450475D01*
X132606394Y-123465941D01*
X132449372Y-123450475D01*
X132371566Y-123426873D01*
X132298381Y-123404673D01*
X132249911Y-123378765D01*
X132159229Y-123330295D01*
X132115989Y-123294808D01*
X132037261Y-123230199D01*
X131947588Y-123120931D01*
X131937165Y-123108231D01*
X131888695Y-123017549D01*
X131862787Y-122969079D01*
X131840449Y-122895439D01*
X131817104Y-122818480D01*
X131807729Y-122795846D01*
X131794115Y-122775472D01*
X131776788Y-122758145D01*
X131756414Y-122744531D01*
X131733775Y-122735154D01*
X131709742Y-122730373D01*
X131685238Y-122730373D01*
X131661204Y-122735153D01*
X131638565Y-122744530D01*
X131618191Y-122758144D01*
X131600864Y-122775471D01*
X131587250Y-122795845D01*
X131575148Y-122818485D01*
X131526875Y-122908799D01*
X131451859Y-123000205D01*
X131184085Y-123267979D01*
X131092679Y-123342995D01*
X131001997Y-123391465D01*
X130953527Y-123417373D01*
X130878031Y-123440274D01*
X130802536Y-123463175D01*
X130645514Y-123478641D01*
X130488492Y-123463175D01*
X130412997Y-123440274D01*
X130337501Y-123417373D01*
X130289031Y-123391465D01*
X130198349Y-123342995D01*
X130155109Y-123307508D01*
X130076381Y-123242899D01*
X130011772Y-123164171D01*
X129976285Y-123120931D01*
X129904613Y-122986841D01*
X129901907Y-122981779D01*
X129856105Y-122830787D01*
X129853966Y-122809069D01*
X129840639Y-122673766D01*
X129856105Y-122516744D01*
X129893846Y-122392327D01*
X129901907Y-122365753D01*
X129936908Y-122300271D01*
X129976285Y-122226601D01*
X130051301Y-122135195D01*
X130319075Y-121867421D01*
X130410481Y-121792405D01*
X130501163Y-121743935D01*
X130549633Y-121718027D01*
X130700623Y-121672225D01*
X130857646Y-121656759D01*
X131014668Y-121672225D01*
X131090163Y-121695126D01*
X131165659Y-121718027D01*
X131214129Y-121743935D01*
X131304811Y-121792405D01*
X131348051Y-121827892D01*
X131426779Y-121892501D01*
X131485092Y-121963557D01*
X131526875Y-122014469D01*
X131571040Y-122097097D01*
X131601253Y-122153621D01*
X131601253Y-122153622D01*
X131646936Y-122304220D01*
X131656311Y-122326854D01*
X131669925Y-122347228D01*
X131687252Y-122364555D01*
X131707626Y-122378169D01*
X131730265Y-122387546D01*
X131754298Y-122392327D01*
X131778802Y-122392327D01*
X131802836Y-122387547D01*
X131825475Y-122378170D01*
X131845849Y-122364556D01*
X131863176Y-122347229D01*
X131876790Y-122326855D01*
X131895820Y-122291253D01*
X131937165Y-122213901D01*
X132012181Y-122122495D01*
X132279955Y-121854721D01*
X132371361Y-121779705D01*
X132462043Y-121731235D01*
X132510513Y-121705327D01*
X132619637Y-121672225D01*
X132661503Y-121659525D01*
X132818526Y-121644059D01*
X132975548Y-121659525D01*
G37*
G36*
X128474668Y-121672225D02*
G01*
X128550163Y-121695126D01*
X128625659Y-121718027D01*
X128674129Y-121743935D01*
X128764811Y-121792405D01*
X128808051Y-121827892D01*
X128886779Y-121892501D01*
X128945092Y-121963557D01*
X128986875Y-122014469D01*
X129031040Y-122097097D01*
X129061253Y-122153621D01*
X129061253Y-122153622D01*
X129107055Y-122304612D01*
X129122521Y-122461634D01*
X129107055Y-122618657D01*
X129094190Y-122661066D01*
X129061253Y-122769647D01*
X129035345Y-122818117D01*
X128986875Y-122908799D01*
X128911859Y-123000205D01*
X128644085Y-123267979D01*
X128552679Y-123342995D01*
X128461997Y-123391465D01*
X128413527Y-123417373D01*
X128338031Y-123440274D01*
X128262536Y-123463175D01*
X128105514Y-123478641D01*
X127948492Y-123463175D01*
X127872997Y-123440274D01*
X127797501Y-123417373D01*
X127749031Y-123391465D01*
X127658349Y-123342995D01*
X127615109Y-123307508D01*
X127536381Y-123242899D01*
X127471772Y-123164171D01*
X127436285Y-123120931D01*
X127364613Y-122986841D01*
X127361907Y-122981779D01*
X127316105Y-122830787D01*
X127313966Y-122809069D01*
X127300639Y-122673766D01*
X127316105Y-122516744D01*
X127353846Y-122392327D01*
X127361907Y-122365753D01*
X127396908Y-122300271D01*
X127436285Y-122226601D01*
X127511301Y-122135195D01*
X127779075Y-121867421D01*
X127870481Y-121792405D01*
X127961163Y-121743935D01*
X128009633Y-121718027D01*
X128160623Y-121672225D01*
X128317646Y-121656759D01*
X128474668Y-121672225D01*
G37*
G36*
X137477328Y-121658865D02*
G01*
X137521370Y-121672225D01*
X137628319Y-121704667D01*
X137676789Y-121730575D01*
X137767471Y-121779045D01*
X137810711Y-121814532D01*
X137889439Y-121879141D01*
X137954048Y-121957869D01*
X137989535Y-122001109D01*
X138027793Y-122072685D01*
X138063913Y-122140261D01*
X138067966Y-122153622D01*
X138109715Y-122291252D01*
X138125181Y-122448274D01*
X138109715Y-122605297D01*
X138105662Y-122618657D01*
X138063913Y-122756287D01*
X138042769Y-122795845D01*
X137989535Y-122895439D01*
X137914519Y-122986845D01*
X137646745Y-123254619D01*
X137555339Y-123329635D01*
X137464657Y-123378105D01*
X137416187Y-123404013D01*
X137372144Y-123417373D01*
X137265196Y-123449815D01*
X137108174Y-123465281D01*
X136951152Y-123449815D01*
X136844204Y-123417373D01*
X136800161Y-123404013D01*
X136751691Y-123378105D01*
X136661009Y-123329635D01*
X136617769Y-123294148D01*
X136539041Y-123229539D01*
X136474432Y-123150811D01*
X136438945Y-123107571D01*
X136374414Y-122986841D01*
X136364567Y-122968419D01*
X136346482Y-122908798D01*
X136318765Y-122817428D01*
X136318765Y-122817425D01*
X136316230Y-122809069D01*
X136306853Y-122786430D01*
X136293239Y-122766056D01*
X136275912Y-122748729D01*
X136255538Y-122735115D01*
X136232899Y-122725738D01*
X136208866Y-122720957D01*
X136184362Y-122720957D01*
X136160328Y-122725737D01*
X136137689Y-122735114D01*
X136117315Y-122748728D01*
X136099988Y-122766055D01*
X136086374Y-122786430D01*
X136081341Y-122795846D01*
X136027755Y-122896099D01*
X135952739Y-122987505D01*
X135684965Y-123255279D01*
X135593559Y-123330295D01*
X135502877Y-123378765D01*
X135454407Y-123404673D01*
X135381222Y-123426873D01*
X135303416Y-123450475D01*
X135146394Y-123465941D01*
X134989372Y-123450475D01*
X134911566Y-123426873D01*
X134838381Y-123404673D01*
X134789911Y-123378765D01*
X134699229Y-123330295D01*
X134655989Y-123294808D01*
X134577261Y-123230199D01*
X134487588Y-123120931D01*
X134477165Y-123108231D01*
X134428695Y-123017549D01*
X134402787Y-122969079D01*
X134379886Y-122893583D01*
X134356985Y-122818088D01*
X134341519Y-122661066D01*
X134356985Y-122504044D01*
X134395168Y-122378170D01*
X134402787Y-122353053D01*
X134435820Y-122291253D01*
X134477165Y-122213901D01*
X134552181Y-122122495D01*
X134819955Y-121854721D01*
X134911361Y-121779705D01*
X135002043Y-121731235D01*
X135050513Y-121705327D01*
X135159637Y-121672225D01*
X135201503Y-121659525D01*
X135358526Y-121644059D01*
X135515548Y-121659525D01*
X135591043Y-121682426D01*
X135666539Y-121705327D01*
X135715009Y-121731235D01*
X135805691Y-121779705D01*
X135848931Y-121815192D01*
X135927659Y-121879801D01*
X135972884Y-121934909D01*
X136027755Y-122001769D01*
X136076225Y-122092451D01*
X136102133Y-122140921D01*
X136117394Y-122191232D01*
X136147935Y-122291912D01*
X136147935Y-122291913D01*
X136150470Y-122300271D01*
X136159847Y-122322910D01*
X136173461Y-122343284D01*
X136190788Y-122360611D01*
X136211162Y-122374225D01*
X136233801Y-122383602D01*
X136257834Y-122388383D01*
X136282338Y-122388383D01*
X136306372Y-122383603D01*
X136329011Y-122374226D01*
X136349385Y-122360612D01*
X136366712Y-122343285D01*
X136380326Y-122322910D01*
X136397248Y-122291252D01*
X136438945Y-122213241D01*
X136513961Y-122121835D01*
X136781735Y-121854061D01*
X136873141Y-121779045D01*
X136963823Y-121730575D01*
X137012293Y-121704667D01*
X137119241Y-121672225D01*
X137163283Y-121658865D01*
X137320306Y-121643399D01*
X137477328Y-121658865D01*
G37*
G36*
X144518208Y-121658865D02*
G01*
X144562250Y-121672225D01*
X144669199Y-121704667D01*
X144717669Y-121730575D01*
X144808351Y-121779045D01*
X144851591Y-121814532D01*
X144930319Y-121879141D01*
X144994928Y-121957869D01*
X145030415Y-122001109D01*
X145068673Y-122072685D01*
X145104793Y-122140261D01*
X145108846Y-122153622D01*
X145150595Y-122291252D01*
X145166061Y-122448274D01*
X145150595Y-122605297D01*
X145146542Y-122618657D01*
X145104793Y-122756287D01*
X145083649Y-122795845D01*
X145030415Y-122895439D01*
X144955399Y-122986845D01*
X144687625Y-123254619D01*
X144596219Y-123329635D01*
X144505537Y-123378105D01*
X144457067Y-123404013D01*
X144413024Y-123417373D01*
X144306076Y-123449815D01*
X144149054Y-123465281D01*
X143992032Y-123449815D01*
X143885084Y-123417373D01*
X143841041Y-123404013D01*
X143792571Y-123378105D01*
X143701889Y-123329635D01*
X143658649Y-123294148D01*
X143579921Y-123229539D01*
X143515312Y-123150811D01*
X143479825Y-123107571D01*
X143415294Y-122986841D01*
X143405447Y-122968419D01*
X143363698Y-122830788D01*
X143359645Y-122817428D01*
X143344179Y-122660406D01*
X143359645Y-122503384D01*
X143389778Y-122404048D01*
X143405447Y-122352393D01*
X143434009Y-122298957D01*
X143479825Y-122213241D01*
X143554841Y-122121835D01*
X143822615Y-121854061D01*
X143914021Y-121779045D01*
X144004703Y-121730575D01*
X144053173Y-121704667D01*
X144160121Y-121672225D01*
X144204163Y-121658865D01*
X144361186Y-121643399D01*
X144518208Y-121658865D01*
G37*
G36*
X141978208Y-121658865D02*
G01*
X142022250Y-121672225D01*
X142129199Y-121704667D01*
X142177669Y-121730575D01*
X142268351Y-121779045D01*
X142311591Y-121814532D01*
X142390319Y-121879141D01*
X142454928Y-121957869D01*
X142490415Y-122001109D01*
X142528673Y-122072685D01*
X142564793Y-122140261D01*
X142568846Y-122153622D01*
X142610595Y-122291252D01*
X142626061Y-122448274D01*
X142610595Y-122605297D01*
X142606542Y-122618657D01*
X142564793Y-122756287D01*
X142543649Y-122795845D01*
X142490415Y-122895439D01*
X142415399Y-122986845D01*
X142147625Y-123254619D01*
X142056219Y-123329635D01*
X141965537Y-123378105D01*
X141917067Y-123404013D01*
X141873024Y-123417373D01*
X141766076Y-123449815D01*
X141609054Y-123465281D01*
X141452032Y-123449815D01*
X141345084Y-123417373D01*
X141301041Y-123404013D01*
X141252571Y-123378105D01*
X141161889Y-123329635D01*
X141118649Y-123294148D01*
X141039921Y-123229539D01*
X140975312Y-123150811D01*
X140939825Y-123107571D01*
X140875294Y-122986841D01*
X140865447Y-122968419D01*
X140823698Y-122830788D01*
X140819645Y-122817428D01*
X140819645Y-122817427D01*
X140817308Y-122809723D01*
X140807930Y-122787084D01*
X140794317Y-122766710D01*
X140776990Y-122749383D01*
X140756615Y-122735769D01*
X140733977Y-122726392D01*
X140709943Y-122721611D01*
X140685439Y-122721611D01*
X140661406Y-122726391D01*
X140638767Y-122735769D01*
X140618393Y-122749382D01*
X140601066Y-122766709D01*
X140587452Y-122787083D01*
X140529535Y-122895439D01*
X140454519Y-122986845D01*
X140186745Y-123254619D01*
X140095339Y-123329635D01*
X140004657Y-123378105D01*
X139956187Y-123404013D01*
X139912144Y-123417373D01*
X139805196Y-123449815D01*
X139648174Y-123465281D01*
X139491152Y-123449815D01*
X139384204Y-123417373D01*
X139340161Y-123404013D01*
X139291691Y-123378105D01*
X139201009Y-123329635D01*
X139157769Y-123294148D01*
X139079041Y-123229539D01*
X139014432Y-123150811D01*
X138978945Y-123107571D01*
X138914414Y-122986841D01*
X138904567Y-122968419D01*
X138862818Y-122830788D01*
X138858765Y-122817428D01*
X138843299Y-122660406D01*
X138858765Y-122503384D01*
X138888898Y-122404048D01*
X138904567Y-122352393D01*
X138933129Y-122298957D01*
X138978945Y-122213241D01*
X139053961Y-122121835D01*
X139321735Y-121854061D01*
X139413141Y-121779045D01*
X139503823Y-121730575D01*
X139552293Y-121704667D01*
X139659241Y-121672225D01*
X139703283Y-121658865D01*
X139860306Y-121643399D01*
X140017328Y-121658865D01*
X140061370Y-121672225D01*
X140168319Y-121704667D01*
X140216789Y-121730575D01*
X140307471Y-121779045D01*
X140350711Y-121814532D01*
X140429439Y-121879141D01*
X140494048Y-121957869D01*
X140529535Y-122001109D01*
X140567793Y-122072685D01*
X140603913Y-122140261D01*
X140652052Y-122298957D01*
X140661430Y-122321596D01*
X140675043Y-122341970D01*
X140692370Y-122359297D01*
X140712745Y-122372911D01*
X140735383Y-122382288D01*
X140759417Y-122387069D01*
X140783921Y-122387069D01*
X140807954Y-122382289D01*
X140830593Y-122372911D01*
X140850967Y-122359298D01*
X140868294Y-122341971D01*
X140881908Y-122321597D01*
X140894009Y-122298957D01*
X140939825Y-122213241D01*
X141014841Y-122121835D01*
X141282615Y-121854061D01*
X141374021Y-121779045D01*
X141464703Y-121730575D01*
X141513173Y-121704667D01*
X141620121Y-121672225D01*
X141664163Y-121658865D01*
X141821186Y-121643399D01*
X141978208Y-121658865D01*
G37*
G36*
X122082581Y-119057334D02*
G01*
X122428541Y-119200636D01*
X122739897Y-119408677D01*
X123004683Y-119673463D01*
X123212724Y-119984819D01*
X123212725Y-119984821D01*
X123356026Y-120330780D01*
X123429080Y-120698047D01*
X123429080Y-121072513D01*
X123412006Y-121158350D01*
X123356026Y-121439781D01*
X123212724Y-121785741D01*
X123004683Y-122097097D01*
X122739897Y-122361883D01*
X122428541Y-122569924D01*
X122428540Y-122569925D01*
X122428539Y-122569925D01*
X122341550Y-122605957D01*
X122082581Y-122713226D01*
X121900812Y-122749382D01*
X121715313Y-122786280D01*
X121340847Y-122786280D01*
X121155348Y-122749382D01*
X120973579Y-122713226D01*
X120714610Y-122605957D01*
X120627621Y-122569925D01*
X120627620Y-122569925D01*
X120627619Y-122569924D01*
X120316263Y-122361883D01*
X120051477Y-122097097D01*
X119843436Y-121785741D01*
X119700134Y-121439781D01*
X119644154Y-121158350D01*
X119627080Y-121072513D01*
X119627080Y-120698047D01*
X119700134Y-120330780D01*
X119843435Y-119984821D01*
X119843436Y-119984819D01*
X120051477Y-119673463D01*
X120316263Y-119408677D01*
X120627619Y-119200636D01*
X120973579Y-119057334D01*
X121340847Y-118984280D01*
X121715313Y-118984280D01*
X122082581Y-119057334D01*
G37*
G36*
X149559053Y-120384909D02*
G01*
X149653492Y-120413557D01*
X149740527Y-120460078D01*
X149816815Y-120522685D01*
X149879422Y-120598973D01*
X149925943Y-120686008D01*
X149954591Y-120780447D01*
X149964264Y-120878660D01*
X149954591Y-120976873D01*
X149925943Y-121071312D01*
X149879422Y-121158347D01*
X149816815Y-121234635D01*
X149740527Y-121297242D01*
X149653492Y-121343763D01*
X149559053Y-121372411D01*
X149485452Y-121379660D01*
X148536228Y-121379660D01*
X148462627Y-121372411D01*
X148368188Y-121343763D01*
X148281153Y-121297242D01*
X148204865Y-121234635D01*
X148142258Y-121158347D01*
X148095737Y-121071312D01*
X148067089Y-120976873D01*
X148057416Y-120878660D01*
X148067089Y-120780447D01*
X148095737Y-120686008D01*
X148142258Y-120598973D01*
X148204865Y-120522685D01*
X148281153Y-120460078D01*
X148368188Y-120413557D01*
X148462627Y-120384909D01*
X148536228Y-120377660D01*
X149485452Y-120377660D01*
X149559053Y-120384909D01*
G37*
G36*
X171641201Y-116661674D02*
G01*
X171741475Y-116703209D01*
X171741476Y-116703210D01*
X171831722Y-116763510D01*
X171908470Y-116840258D01*
X171908471Y-116840260D01*
X171968771Y-116930505D01*
X172010306Y-117030779D01*
X172031480Y-117137230D01*
X172031480Y-117245770D01*
X172010306Y-117352221D01*
X171968771Y-117452495D01*
X171968770Y-117452496D01*
X171908470Y-117542742D01*
X171831722Y-117619490D01*
X171786292Y-117649845D01*
X171741475Y-117679791D01*
X171641201Y-117721326D01*
X171534750Y-117742500D01*
X171426210Y-117742500D01*
X171319759Y-117721326D01*
X171219485Y-117679791D01*
X171174668Y-117649845D01*
X171129238Y-117619490D01*
X171052490Y-117542742D01*
X170992190Y-117452496D01*
X170992189Y-117452495D01*
X170950654Y-117352221D01*
X170929480Y-117245770D01*
X170929480Y-117137230D01*
X170950654Y-117030779D01*
X170992189Y-116930505D01*
X171052489Y-116840260D01*
X171052490Y-116840258D01*
X171129238Y-116763510D01*
X171219484Y-116703210D01*
X171219485Y-116703209D01*
X171319759Y-116661674D01*
X171426210Y-116640500D01*
X171534750Y-116640500D01*
X171641201Y-116661674D01*
G37*
G36*
X170609053Y-112764909D02*
G01*
X170703492Y-112793557D01*
X170790527Y-112840078D01*
X170866815Y-112902685D01*
X170929422Y-112978973D01*
X170975943Y-113066008D01*
X171004591Y-113160447D01*
X171014264Y-113258660D01*
X171004591Y-113356873D01*
X170975943Y-113451312D01*
X170929422Y-113538347D01*
X170866815Y-113614635D01*
X170790527Y-113677242D01*
X170703492Y-113723763D01*
X170609053Y-113752411D01*
X170535452Y-113759660D01*
X168886228Y-113759660D01*
X168812627Y-113752411D01*
X168718188Y-113723763D01*
X168631153Y-113677242D01*
X168554865Y-113614635D01*
X168492258Y-113538347D01*
X168445737Y-113451312D01*
X168417089Y-113356873D01*
X168407416Y-113258660D01*
X168417089Y-113160447D01*
X168445737Y-113066008D01*
X168492258Y-112978973D01*
X168554865Y-112902685D01*
X168631153Y-112840078D01*
X168718188Y-112793557D01*
X168812627Y-112764909D01*
X168886228Y-112757660D01*
X170535452Y-112757660D01*
X170609053Y-112764909D01*
G37*
G36*
X170659053Y-111494909D02*
G01*
X170753492Y-111523557D01*
X170840527Y-111570078D01*
X170916815Y-111632685D01*
X170979422Y-111708973D01*
X171025943Y-111796008D01*
X171054591Y-111890447D01*
X171064264Y-111988660D01*
X171054591Y-112086873D01*
X171025943Y-112181312D01*
X170979422Y-112268347D01*
X170916815Y-112344635D01*
X170840527Y-112407242D01*
X170753492Y-112453763D01*
X170659053Y-112482411D01*
X170585452Y-112489660D01*
X167436228Y-112489660D01*
X167362627Y-112482411D01*
X167268188Y-112453763D01*
X167181153Y-112407242D01*
X167104865Y-112344635D01*
X167042258Y-112268347D01*
X166995737Y-112181312D01*
X166967089Y-112086873D01*
X166957416Y-111988660D01*
X166967089Y-111890447D01*
X166995737Y-111796008D01*
X167042258Y-111708973D01*
X167104865Y-111632685D01*
X167181153Y-111570078D01*
X167268188Y-111523557D01*
X167362627Y-111494909D01*
X167436228Y-111487660D01*
X170585452Y-111487660D01*
X170659053Y-111494909D01*
G37*
G36*
X170659053Y-110224909D02*
G01*
X170753492Y-110253557D01*
X170840527Y-110300078D01*
X170916815Y-110362685D01*
X170979422Y-110438973D01*
X171025943Y-110526008D01*
X171054591Y-110620447D01*
X171064264Y-110718660D01*
X171054591Y-110816873D01*
X171025943Y-110911312D01*
X170979422Y-110998347D01*
X170916815Y-111074635D01*
X170840527Y-111137242D01*
X170753492Y-111183763D01*
X170659053Y-111212411D01*
X170585452Y-111219660D01*
X167436228Y-111219660D01*
X167362627Y-111212411D01*
X167268188Y-111183763D01*
X167181153Y-111137242D01*
X167104865Y-111074635D01*
X167042258Y-110998347D01*
X166995737Y-110911312D01*
X166967089Y-110816873D01*
X166957416Y-110718660D01*
X166967089Y-110620447D01*
X166995737Y-110526008D01*
X167042258Y-110438973D01*
X167104865Y-110362685D01*
X167181153Y-110300078D01*
X167268188Y-110253557D01*
X167362627Y-110224909D01*
X167436228Y-110217660D01*
X170585452Y-110217660D01*
X170659053Y-110224909D01*
G37*
G36*
X170659053Y-108954909D02*
G01*
X170753492Y-108983557D01*
X170840527Y-109030078D01*
X170916815Y-109092685D01*
X170979422Y-109168973D01*
X171025943Y-109256008D01*
X171054591Y-109350447D01*
X171064264Y-109448660D01*
X171054591Y-109546873D01*
X171025943Y-109641312D01*
X170979422Y-109728347D01*
X170916815Y-109804635D01*
X170840527Y-109867242D01*
X170753492Y-109913763D01*
X170659053Y-109942411D01*
X170585452Y-109949660D01*
X167436228Y-109949660D01*
X167362627Y-109942411D01*
X167268188Y-109913763D01*
X167181153Y-109867242D01*
X167104865Y-109804635D01*
X167042258Y-109728347D01*
X166995737Y-109641312D01*
X166967089Y-109546873D01*
X166957416Y-109448660D01*
X166967089Y-109350447D01*
X166995737Y-109256008D01*
X167042258Y-109168973D01*
X167104865Y-109092685D01*
X167181153Y-109030078D01*
X167268188Y-108983557D01*
X167362627Y-108954909D01*
X167436228Y-108947660D01*
X170585452Y-108947660D01*
X170659053Y-108954909D01*
G37*
G36*
X149559053Y-108954909D02*
G01*
X149653492Y-108983557D01*
X149740527Y-109030078D01*
X149816815Y-109092685D01*
X149879422Y-109168973D01*
X149925943Y-109256008D01*
X149954591Y-109350447D01*
X149964264Y-109448660D01*
X149954591Y-109546873D01*
X149925943Y-109641312D01*
X149879422Y-109728347D01*
X149816815Y-109804635D01*
X149740527Y-109867242D01*
X149653492Y-109913763D01*
X149559053Y-109942411D01*
X149485452Y-109949660D01*
X148536228Y-109949660D01*
X148462627Y-109942411D01*
X148368188Y-109913763D01*
X148281153Y-109867242D01*
X148204865Y-109804635D01*
X148142258Y-109728347D01*
X148095737Y-109641312D01*
X148067089Y-109546873D01*
X148057416Y-109448660D01*
X148067089Y-109350447D01*
X148095737Y-109256008D01*
X148142258Y-109168973D01*
X148204865Y-109092685D01*
X148281153Y-109030078D01*
X148368188Y-108983557D01*
X148462627Y-108954909D01*
X148536228Y-108947660D01*
X149485452Y-108947660D01*
X149559053Y-108954909D01*
G37*
G36*
X170659053Y-107684909D02*
G01*
X170753492Y-107713557D01*
X170840527Y-107760078D01*
X170916815Y-107822685D01*
X170979422Y-107898973D01*
X171025943Y-107986008D01*
X171054591Y-108080447D01*
X171064264Y-108178660D01*
X171054591Y-108276873D01*
X171025943Y-108371312D01*
X170979422Y-108458347D01*
X170916815Y-108534635D01*
X170840527Y-108597242D01*
X170753492Y-108643763D01*
X170659053Y-108672411D01*
X170585452Y-108679660D01*
X167436228Y-108679660D01*
X167362627Y-108672411D01*
X167268188Y-108643763D01*
X167181153Y-108597242D01*
X167104865Y-108534635D01*
X167042258Y-108458347D01*
X166995737Y-108371312D01*
X166967089Y-108276873D01*
X166957416Y-108178660D01*
X166967089Y-108080447D01*
X166995737Y-107986008D01*
X167042258Y-107898973D01*
X167104865Y-107822685D01*
X167181153Y-107760078D01*
X167268188Y-107713557D01*
X167362627Y-107684909D01*
X167436228Y-107677660D01*
X170585452Y-107677660D01*
X170659053Y-107684909D01*
G37*
G36*
X170659053Y-106414909D02*
G01*
X170753492Y-106443557D01*
X170840527Y-106490078D01*
X170916815Y-106552685D01*
X170979422Y-106628973D01*
X171025943Y-106716008D01*
X171054591Y-106810447D01*
X171064264Y-106908660D01*
X171054591Y-107006873D01*
X171025943Y-107101312D01*
X170979422Y-107188347D01*
X170916815Y-107264635D01*
X170840527Y-107327242D01*
X170753492Y-107373763D01*
X170659053Y-107402411D01*
X170585452Y-107409660D01*
X167436228Y-107409660D01*
X167362627Y-107402411D01*
X167268188Y-107373763D01*
X167181153Y-107327242D01*
X167104865Y-107264635D01*
X167042258Y-107188347D01*
X166995737Y-107101312D01*
X166967089Y-107006873D01*
X166957416Y-106908660D01*
X166967089Y-106810447D01*
X166995737Y-106716008D01*
X167042258Y-106628973D01*
X167104865Y-106552685D01*
X167181153Y-106490078D01*
X167268188Y-106443557D01*
X167362627Y-106414909D01*
X167436228Y-106407660D01*
X170585452Y-106407660D01*
X170659053Y-106414909D01*
G37*
G36*
X170659053Y-105144909D02*
G01*
X170753492Y-105173557D01*
X170840527Y-105220078D01*
X170916815Y-105282685D01*
X170979422Y-105358973D01*
X171025943Y-105446008D01*
X171054591Y-105540447D01*
X171064264Y-105638660D01*
X171054591Y-105736873D01*
X171025943Y-105831312D01*
X170979422Y-105918347D01*
X170916815Y-105994635D01*
X170840527Y-106057242D01*
X170753492Y-106103763D01*
X170659053Y-106132411D01*
X170585452Y-106139660D01*
X167436228Y-106139660D01*
X167362627Y-106132411D01*
X167268188Y-106103763D01*
X167181153Y-106057242D01*
X167104865Y-105994635D01*
X167042258Y-105918347D01*
X166995737Y-105831312D01*
X166967089Y-105736873D01*
X166957416Y-105638660D01*
X166967089Y-105540447D01*
X166995737Y-105446008D01*
X167042258Y-105358973D01*
X167104865Y-105282685D01*
X167181153Y-105220078D01*
X167268188Y-105173557D01*
X167362627Y-105144909D01*
X167436228Y-105137660D01*
X170585452Y-105137660D01*
X170659053Y-105144909D01*
G37*
G36*
X149559053Y-105144909D02*
G01*
X149653492Y-105173557D01*
X149740527Y-105220078D01*
X149816815Y-105282685D01*
X149879422Y-105358973D01*
X149925943Y-105446008D01*
X149954591Y-105540447D01*
X149964264Y-105638660D01*
X149954591Y-105736873D01*
X149925943Y-105831312D01*
X149879422Y-105918347D01*
X149816815Y-105994635D01*
X149740527Y-106057242D01*
X149653492Y-106103763D01*
X149559053Y-106132411D01*
X149485452Y-106139660D01*
X148536228Y-106139660D01*
X148462627Y-106132411D01*
X148368188Y-106103763D01*
X148281153Y-106057242D01*
X148204865Y-105994635D01*
X148142258Y-105918347D01*
X148095737Y-105831312D01*
X148067089Y-105736873D01*
X148057416Y-105638660D01*
X148067089Y-105540447D01*
X148095737Y-105446008D01*
X148142258Y-105358973D01*
X148204865Y-105282685D01*
X148281153Y-105220078D01*
X148368188Y-105173557D01*
X148462627Y-105144909D01*
X148536228Y-105137660D01*
X149485452Y-105137660D01*
X149559053Y-105144909D01*
G37*
G36*
X153494470Y-97736125D02*
G01*
X153579486Y-97761914D01*
X153657835Y-97803793D01*
X153726509Y-97860151D01*
X153782867Y-97928825D01*
X153824746Y-98007174D01*
X153850535Y-98092190D01*
X153857060Y-98158442D01*
X153857060Y-99402758D01*
X153850535Y-99469010D01*
X153824746Y-99554026D01*
X153782867Y-99632375D01*
X153726509Y-99701048D01*
X153657834Y-99757407D01*
X153579485Y-99799286D01*
X153494469Y-99825075D01*
X153406060Y-99833782D01*
X153317650Y-99825075D01*
X153232634Y-99799286D01*
X153154285Y-99757407D01*
X153085612Y-99701049D01*
X153029253Y-99632374D01*
X152987374Y-99554025D01*
X152961585Y-99469009D01*
X152955060Y-99402757D01*
X152955061Y-98158442D01*
X152961586Y-98092190D01*
X152987375Y-98007174D01*
X153029254Y-97928825D01*
X153085612Y-97860151D01*
X153154286Y-97803793D01*
X153232635Y-97761914D01*
X153317651Y-97736125D01*
X153406060Y-97727418D01*
X153494470Y-97736125D01*
G37*
G36*
X150954470Y-97736125D02*
G01*
X151039486Y-97761914D01*
X151117835Y-97803793D01*
X151186509Y-97860151D01*
X151242867Y-97928825D01*
X151284746Y-98007174D01*
X151310535Y-98092190D01*
X151317060Y-98158442D01*
X151317060Y-99402758D01*
X151310535Y-99469010D01*
X151284746Y-99554026D01*
X151242867Y-99632375D01*
X151186509Y-99701048D01*
X151117834Y-99757407D01*
X151039485Y-99799286D01*
X150954469Y-99825075D01*
X150866060Y-99833782D01*
X150777650Y-99825075D01*
X150692634Y-99799286D01*
X150614285Y-99757407D01*
X150545612Y-99701049D01*
X150489253Y-99632374D01*
X150447374Y-99554025D01*
X150421585Y-99469009D01*
X150415060Y-99402757D01*
X150415061Y-98158442D01*
X150421586Y-98092190D01*
X150447375Y-98007174D01*
X150489254Y-97928825D01*
X150545612Y-97860151D01*
X150614286Y-97803793D01*
X150692635Y-97761914D01*
X150777651Y-97736125D01*
X150866060Y-97727418D01*
X150954470Y-97736125D01*
G37*
G36*
X159056850Y-97841205D02*
G01*
X159141866Y-97866994D01*
X159220215Y-97908873D01*
X159288889Y-97965231D01*
X159345247Y-98033905D01*
X159387126Y-98112254D01*
X159412915Y-98197270D01*
X159419440Y-98263522D01*
X159419440Y-99307838D01*
X159412915Y-99374090D01*
X159387126Y-99459106D01*
X159345247Y-99537455D01*
X159288889Y-99606128D01*
X159220214Y-99662487D01*
X159141865Y-99704366D01*
X159056849Y-99730155D01*
X158968440Y-99738862D01*
X158880030Y-99730155D01*
X158795014Y-99704366D01*
X158716665Y-99662487D01*
X158647992Y-99606129D01*
X158591633Y-99537454D01*
X158549754Y-99459105D01*
X158523965Y-99374089D01*
X158517440Y-99307837D01*
X158517441Y-98263522D01*
X158523966Y-98197270D01*
X158549755Y-98112254D01*
X158591634Y-98033905D01*
X158647992Y-97965231D01*
X158716666Y-97908873D01*
X158795015Y-97866994D01*
X158880031Y-97841205D01*
X158968440Y-97832498D01*
X159056850Y-97841205D01*
G37*
G36*
X167946850Y-97841205D02*
G01*
X168031866Y-97866994D01*
X168110215Y-97908873D01*
X168178889Y-97965231D01*
X168235247Y-98033905D01*
X168277126Y-98112254D01*
X168302915Y-98197270D01*
X168309440Y-98263522D01*
X168309440Y-99307838D01*
X168302915Y-99374090D01*
X168277126Y-99459106D01*
X168235247Y-99537455D01*
X168178889Y-99606128D01*
X168110214Y-99662487D01*
X168031865Y-99704366D01*
X167946849Y-99730155D01*
X167858440Y-99738862D01*
X167770030Y-99730155D01*
X167685014Y-99704366D01*
X167606665Y-99662487D01*
X167537992Y-99606129D01*
X167481633Y-99537454D01*
X167439754Y-99459105D01*
X167413965Y-99374089D01*
X167407440Y-99307837D01*
X167407441Y-98263522D01*
X167413966Y-98197270D01*
X167439755Y-98112254D01*
X167481634Y-98033905D01*
X167537992Y-97965231D01*
X167606666Y-97908873D01*
X167685015Y-97866994D01*
X167770031Y-97841205D01*
X167858440Y-97832498D01*
X167946850Y-97841205D01*
G37*
G36*
X164136850Y-97841205D02*
G01*
X164221866Y-97866994D01*
X164300215Y-97908873D01*
X164368889Y-97965231D01*
X164425247Y-98033905D01*
X164467126Y-98112254D01*
X164492915Y-98197270D01*
X164499440Y-98263522D01*
X164499440Y-99307838D01*
X164492915Y-99374090D01*
X164467126Y-99459106D01*
X164425247Y-99537455D01*
X164368889Y-99606128D01*
X164300214Y-99662487D01*
X164221865Y-99704366D01*
X164136849Y-99730155D01*
X164048440Y-99738862D01*
X163960030Y-99730155D01*
X163875014Y-99704366D01*
X163796665Y-99662487D01*
X163727992Y-99606129D01*
X163671633Y-99537454D01*
X163629754Y-99459105D01*
X163603965Y-99374089D01*
X163597440Y-99307837D01*
X163597441Y-98263522D01*
X163603966Y-98197270D01*
X163629755Y-98112254D01*
X163671634Y-98033905D01*
X163727992Y-97965231D01*
X163796666Y-97908873D01*
X163875015Y-97866994D01*
X163960031Y-97841205D01*
X164048440Y-97832498D01*
X164136850Y-97841205D01*
G37*
G36*
X160326850Y-97841205D02*
G01*
X160411866Y-97866994D01*
X160490215Y-97908873D01*
X160558889Y-97965231D01*
X160615247Y-98033905D01*
X160657126Y-98112254D01*
X160682915Y-98197270D01*
X160689440Y-98263522D01*
X160689440Y-99307838D01*
X160682915Y-99374090D01*
X160657126Y-99459106D01*
X160615247Y-99537455D01*
X160558889Y-99606128D01*
X160490214Y-99662487D01*
X160411865Y-99704366D01*
X160326849Y-99730155D01*
X160238440Y-99738862D01*
X160150030Y-99730155D01*
X160065014Y-99704366D01*
X159986665Y-99662487D01*
X159917992Y-99606129D01*
X159861633Y-99537454D01*
X159819754Y-99459105D01*
X159793965Y-99374089D01*
X159787440Y-99307837D01*
X159787441Y-98263522D01*
X159793966Y-98197270D01*
X159819755Y-98112254D01*
X159861634Y-98033905D01*
X159917992Y-97965231D01*
X159986666Y-97908873D01*
X160065015Y-97866994D01*
X160150031Y-97841205D01*
X160238440Y-97832498D01*
X160326850Y-97841205D01*
G37*
G36*
X161596850Y-97841205D02*
G01*
X161681866Y-97866994D01*
X161760215Y-97908873D01*
X161828889Y-97965231D01*
X161885247Y-98033905D01*
X161927126Y-98112254D01*
X161952915Y-98197270D01*
X161959440Y-98263522D01*
X161959440Y-99307838D01*
X161952915Y-99374090D01*
X161927126Y-99459106D01*
X161885247Y-99537455D01*
X161828889Y-99606128D01*
X161760214Y-99662487D01*
X161681865Y-99704366D01*
X161596849Y-99730155D01*
X161508440Y-99738862D01*
X161420030Y-99730155D01*
X161335014Y-99704366D01*
X161256665Y-99662487D01*
X161187992Y-99606129D01*
X161131633Y-99537454D01*
X161089754Y-99459105D01*
X161063965Y-99374089D01*
X161057440Y-99307837D01*
X161057441Y-98263522D01*
X161063966Y-98197270D01*
X161089755Y-98112254D01*
X161131634Y-98033905D01*
X161187992Y-97965231D01*
X161256666Y-97908873D01*
X161335015Y-97866994D01*
X161420031Y-97841205D01*
X161508440Y-97832498D01*
X161596850Y-97841205D01*
G37*
G36*
X162866850Y-97841205D02*
G01*
X162951866Y-97866994D01*
X163030215Y-97908873D01*
X163098889Y-97965231D01*
X163155247Y-98033905D01*
X163197126Y-98112254D01*
X163222915Y-98197270D01*
X163229440Y-98263522D01*
X163229440Y-99307838D01*
X163222915Y-99374090D01*
X163197126Y-99459106D01*
X163155247Y-99537455D01*
X163098889Y-99606128D01*
X163030214Y-99662487D01*
X162951865Y-99704366D01*
X162866849Y-99730155D01*
X162778440Y-99738862D01*
X162690030Y-99730155D01*
X162605014Y-99704366D01*
X162526665Y-99662487D01*
X162457992Y-99606129D01*
X162401633Y-99537454D01*
X162359754Y-99459105D01*
X162333965Y-99374089D01*
X162327440Y-99307837D01*
X162327441Y-98263522D01*
X162333966Y-98197270D01*
X162359755Y-98112254D01*
X162401634Y-98033905D01*
X162457992Y-97965231D01*
X162526666Y-97908873D01*
X162605015Y-97866994D01*
X162690031Y-97841205D01*
X162778440Y-97832498D01*
X162866850Y-97841205D01*
G37*
G36*
X165406850Y-97841205D02*
G01*
X165491866Y-97866994D01*
X165570215Y-97908873D01*
X165638889Y-97965231D01*
X165695247Y-98033905D01*
X165737126Y-98112254D01*
X165762915Y-98197270D01*
X165769440Y-98263522D01*
X165769440Y-99307838D01*
X165762915Y-99374090D01*
X165737126Y-99459106D01*
X165695247Y-99537455D01*
X165638889Y-99606128D01*
X165570214Y-99662487D01*
X165491865Y-99704366D01*
X165406849Y-99730155D01*
X165318440Y-99738862D01*
X165230030Y-99730155D01*
X165145014Y-99704366D01*
X165066665Y-99662487D01*
X164997992Y-99606129D01*
X164941633Y-99537454D01*
X164899754Y-99459105D01*
X164873965Y-99374089D01*
X164867440Y-99307837D01*
X164867441Y-98263522D01*
X164873966Y-98197270D01*
X164899755Y-98112254D01*
X164941634Y-98033905D01*
X164997992Y-97965231D01*
X165066666Y-97908873D01*
X165145015Y-97866994D01*
X165230031Y-97841205D01*
X165318440Y-97832498D01*
X165406850Y-97841205D01*
G37*
G36*
X117420588Y-91083005D02*
G01*
X117496083Y-91105906D01*
X117571579Y-91128807D01*
X117620049Y-91154715D01*
X117710731Y-91203185D01*
X117753971Y-91238672D01*
X117832699Y-91303281D01*
X117897308Y-91382009D01*
X117932795Y-91425249D01*
X117981265Y-91515931D01*
X118007173Y-91564401D01*
X118052975Y-91715393D01*
X118068441Y-91872414D01*
X118052975Y-92029436D01*
X118007173Y-92180427D01*
X117981265Y-92228897D01*
X117932795Y-92319579D01*
X117857779Y-92410985D01*
X117590005Y-92678759D01*
X117498599Y-92753775D01*
X117407917Y-92802245D01*
X117359447Y-92828153D01*
X117283951Y-92851054D01*
X117208456Y-92873955D01*
X117051434Y-92889421D01*
X116894412Y-92873955D01*
X116818917Y-92851054D01*
X116743421Y-92828153D01*
X116694951Y-92802245D01*
X116604269Y-92753775D01*
X116561029Y-92718288D01*
X116482301Y-92653679D01*
X116417692Y-92574951D01*
X116382205Y-92531711D01*
X116317674Y-92410981D01*
X116307827Y-92392559D01*
X116262025Y-92241567D01*
X116256003Y-92180426D01*
X116246559Y-92084546D01*
X116262025Y-91927524D01*
X116307827Y-91776534D01*
X116307827Y-91776533D01*
X116340508Y-91715392D01*
X116382205Y-91637381D01*
X116457221Y-91545975D01*
X116724995Y-91278201D01*
X116816401Y-91203185D01*
X116907083Y-91154715D01*
X116955553Y-91128807D01*
X117106543Y-91083005D01*
X117263566Y-91067539D01*
X117420588Y-91083005D01*
G37*
G36*
X117420588Y-88543005D02*
G01*
X117496083Y-88565906D01*
X117571579Y-88588807D01*
X117620049Y-88614715D01*
X117710731Y-88663185D01*
X117753971Y-88698672D01*
X117832699Y-88763281D01*
X117897308Y-88842009D01*
X117932795Y-88885249D01*
X117981265Y-88975931D01*
X118007173Y-89024401D01*
X118052975Y-89175393D01*
X118068441Y-89332414D01*
X118052975Y-89489436D01*
X118007173Y-89640427D01*
X117981265Y-89688897D01*
X117932795Y-89779579D01*
X117857779Y-89870985D01*
X117590005Y-90138759D01*
X117498599Y-90213775D01*
X117407917Y-90262245D01*
X117359447Y-90288153D01*
X117283951Y-90311054D01*
X117208456Y-90333955D01*
X117051434Y-90349421D01*
X116894412Y-90333955D01*
X116818917Y-90311054D01*
X116743421Y-90288153D01*
X116694951Y-90262245D01*
X116604269Y-90213775D01*
X116561029Y-90178288D01*
X116482301Y-90113679D01*
X116417692Y-90034951D01*
X116382205Y-89991711D01*
X116317674Y-89870981D01*
X116307827Y-89852559D01*
X116262025Y-89701567D01*
X116256003Y-89640426D01*
X116246559Y-89544546D01*
X116262025Y-89387524D01*
X116307827Y-89236534D01*
X116307827Y-89236533D01*
X116340508Y-89175392D01*
X116382205Y-89097381D01*
X116457221Y-89005975D01*
X116724995Y-88738201D01*
X116816401Y-88663185D01*
X116907083Y-88614715D01*
X116955553Y-88588807D01*
X117031049Y-88565906D01*
X117106543Y-88543005D01*
X117263566Y-88527539D01*
X117420588Y-88543005D01*
G37*
G36*
X117420588Y-86003005D02*
G01*
X117496083Y-86025906D01*
X117571579Y-86048807D01*
X117620049Y-86074715D01*
X117710731Y-86123185D01*
X117753971Y-86158672D01*
X117832699Y-86223281D01*
X117897308Y-86302009D01*
X117932795Y-86345249D01*
X117981265Y-86435931D01*
X118007173Y-86484401D01*
X118052975Y-86635393D01*
X118068441Y-86792414D01*
X118052975Y-86949436D01*
X118007173Y-87100427D01*
X117981265Y-87148897D01*
X117932795Y-87239579D01*
X117857779Y-87330985D01*
X117590005Y-87598759D01*
X117498599Y-87673775D01*
X117407917Y-87722245D01*
X117359447Y-87748153D01*
X117283951Y-87771054D01*
X117208456Y-87793955D01*
X117051434Y-87809421D01*
X116894412Y-87793955D01*
X116818917Y-87771054D01*
X116743421Y-87748153D01*
X116694951Y-87722245D01*
X116604269Y-87673775D01*
X116561029Y-87638288D01*
X116482301Y-87573679D01*
X116417692Y-87494951D01*
X116382205Y-87451711D01*
X116317674Y-87330981D01*
X116307827Y-87312559D01*
X116262025Y-87161567D01*
X116256003Y-87100426D01*
X116246559Y-87004546D01*
X116262025Y-86847524D01*
X116307827Y-86696534D01*
X116307827Y-86696533D01*
X116340508Y-86635392D01*
X116382205Y-86557381D01*
X116457221Y-86465975D01*
X116724995Y-86198201D01*
X116816401Y-86123185D01*
X116907083Y-86074715D01*
X116955553Y-86048807D01*
X117031049Y-86025906D01*
X117106543Y-86003005D01*
X117263566Y-85987539D01*
X117420588Y-86003005D01*
G37*
G36*
X167946850Y-83841205D02*
G01*
X168031866Y-83866994D01*
X168110215Y-83908873D01*
X168178889Y-83965231D01*
X168235247Y-84033905D01*
X168277126Y-84112254D01*
X168302915Y-84197270D01*
X168309440Y-84263522D01*
X168309440Y-85307838D01*
X168302915Y-85374090D01*
X168277126Y-85459106D01*
X168235247Y-85537455D01*
X168178889Y-85606128D01*
X168110214Y-85662487D01*
X168031865Y-85704366D01*
X167946849Y-85730155D01*
X167858440Y-85738862D01*
X167770030Y-85730155D01*
X167685014Y-85704366D01*
X167606665Y-85662487D01*
X167537992Y-85606129D01*
X167481633Y-85537454D01*
X167439754Y-85459105D01*
X167413965Y-85374089D01*
X167407440Y-85307837D01*
X167407441Y-84263522D01*
X167413966Y-84197270D01*
X167439755Y-84112254D01*
X167481634Y-84033905D01*
X167537992Y-83965231D01*
X167606666Y-83908873D01*
X167685015Y-83866994D01*
X167770031Y-83841205D01*
X167858440Y-83832498D01*
X167946850Y-83841205D01*
G37*
G36*
X166676850Y-83841205D02*
G01*
X166761866Y-83866994D01*
X166840215Y-83908873D01*
X166908889Y-83965231D01*
X166965247Y-84033905D01*
X167007126Y-84112254D01*
X167032915Y-84197270D01*
X167039440Y-84263522D01*
X167039440Y-85307838D01*
X167032915Y-85374090D01*
X167007126Y-85459106D01*
X166965247Y-85537455D01*
X166908889Y-85606128D01*
X166840214Y-85662487D01*
X166761865Y-85704366D01*
X166676849Y-85730155D01*
X166588440Y-85738862D01*
X166500030Y-85730155D01*
X166415014Y-85704366D01*
X166336665Y-85662487D01*
X166267992Y-85606129D01*
X166211633Y-85537454D01*
X166169754Y-85459105D01*
X166143965Y-85374089D01*
X166137440Y-85307837D01*
X166137441Y-84263522D01*
X166143966Y-84197270D01*
X166169755Y-84112254D01*
X166211634Y-84033905D01*
X166267992Y-83965231D01*
X166336666Y-83908873D01*
X166415015Y-83866994D01*
X166500031Y-83841205D01*
X166588440Y-83832498D01*
X166676850Y-83841205D01*
G37*
G36*
X165406850Y-83841205D02*
G01*
X165491866Y-83866994D01*
X165570215Y-83908873D01*
X165638889Y-83965231D01*
X165695247Y-84033905D01*
X165737126Y-84112254D01*
X165762915Y-84197270D01*
X165769440Y-84263522D01*
X165769440Y-85307838D01*
X165762915Y-85374090D01*
X165737126Y-85459106D01*
X165695247Y-85537455D01*
X165638889Y-85606128D01*
X165570214Y-85662487D01*
X165491865Y-85704366D01*
X165406849Y-85730155D01*
X165318440Y-85738862D01*
X165230030Y-85730155D01*
X165145014Y-85704366D01*
X165066665Y-85662487D01*
X164997992Y-85606129D01*
X164941633Y-85537454D01*
X164899754Y-85459105D01*
X164873965Y-85374089D01*
X164867440Y-85307837D01*
X164867441Y-84263522D01*
X164873966Y-84197270D01*
X164899755Y-84112254D01*
X164941634Y-84033905D01*
X164997992Y-83965231D01*
X165066666Y-83908873D01*
X165145015Y-83866994D01*
X165230031Y-83841205D01*
X165318440Y-83832498D01*
X165406850Y-83841205D01*
G37*
G36*
X160326850Y-83841205D02*
G01*
X160411866Y-83866994D01*
X160490215Y-83908873D01*
X160558889Y-83965231D01*
X160615247Y-84033905D01*
X160657126Y-84112254D01*
X160682915Y-84197270D01*
X160689440Y-84263522D01*
X160689440Y-85307838D01*
X160682915Y-85374090D01*
X160657126Y-85459106D01*
X160615247Y-85537455D01*
X160558889Y-85606128D01*
X160490214Y-85662487D01*
X160411865Y-85704366D01*
X160326849Y-85730155D01*
X160238440Y-85738862D01*
X160150030Y-85730155D01*
X160065014Y-85704366D01*
X159986665Y-85662487D01*
X159917992Y-85606129D01*
X159861633Y-85537454D01*
X159819754Y-85459105D01*
X159793965Y-85374089D01*
X159787440Y-85307837D01*
X159787441Y-84263522D01*
X159793966Y-84197270D01*
X159819755Y-84112254D01*
X159861634Y-84033905D01*
X159917992Y-83965231D01*
X159986666Y-83908873D01*
X160065015Y-83866994D01*
X160150031Y-83841205D01*
X160238440Y-83832498D01*
X160326850Y-83841205D01*
G37*
G36*
X159056850Y-83841205D02*
G01*
X159141866Y-83866994D01*
X159220215Y-83908873D01*
X159288889Y-83965231D01*
X159345247Y-84033905D01*
X159387126Y-84112254D01*
X159412915Y-84197270D01*
X159419440Y-84263522D01*
X159419440Y-85307838D01*
X159412915Y-85374090D01*
X159387126Y-85459106D01*
X159345247Y-85537455D01*
X159288889Y-85606128D01*
X159220214Y-85662487D01*
X159141865Y-85704366D01*
X159056849Y-85730155D01*
X158968440Y-85738862D01*
X158880030Y-85730155D01*
X158795014Y-85704366D01*
X158716665Y-85662487D01*
X158647992Y-85606129D01*
X158591633Y-85537454D01*
X158549754Y-85459105D01*
X158523965Y-85374089D01*
X158517440Y-85307837D01*
X158517441Y-84263522D01*
X158523966Y-84197270D01*
X158549755Y-84112254D01*
X158591634Y-84033905D01*
X158647992Y-83965231D01*
X158716666Y-83908873D01*
X158795015Y-83866994D01*
X158880031Y-83841205D01*
X158968440Y-83832498D01*
X159056850Y-83841205D01*
G37*
G36*
X153494470Y-83836125D02*
G01*
X153579486Y-83861914D01*
X153657835Y-83903793D01*
X153726509Y-83960151D01*
X153782867Y-84028825D01*
X153824745Y-84107172D01*
X153850535Y-84192190D01*
X153857060Y-84258442D01*
X153857060Y-85302758D01*
X153850535Y-85369010D01*
X153824746Y-85454026D01*
X153782867Y-85532375D01*
X153726509Y-85601048D01*
X153657834Y-85657407D01*
X153579485Y-85699286D01*
X153494469Y-85725075D01*
X153406060Y-85733782D01*
X153317650Y-85725075D01*
X153232634Y-85699286D01*
X153154285Y-85657407D01*
X153085612Y-85601049D01*
X153029253Y-85532374D01*
X152987374Y-85454025D01*
X152961585Y-85369009D01*
X152955060Y-85302757D01*
X152955061Y-84258442D01*
X152961586Y-84192190D01*
X152987376Y-84107172D01*
X153029254Y-84028825D01*
X153085612Y-83960151D01*
X153154286Y-83903793D01*
X153232635Y-83861914D01*
X153317651Y-83836125D01*
X153406060Y-83827418D01*
X153494470Y-83836125D01*
G37*
G36*
X150954470Y-83836125D02*
G01*
X151039486Y-83861914D01*
X151117835Y-83903793D01*
X151186509Y-83960151D01*
X151242867Y-84028825D01*
X151284745Y-84107172D01*
X151310535Y-84192190D01*
X151317060Y-84258442D01*
X151317060Y-85302758D01*
X151310535Y-85369010D01*
X151284746Y-85454026D01*
X151242867Y-85532375D01*
X151186509Y-85601048D01*
X151117834Y-85657407D01*
X151039485Y-85699286D01*
X150954469Y-85725075D01*
X150866060Y-85733782D01*
X150777650Y-85725075D01*
X150692634Y-85699286D01*
X150614285Y-85657407D01*
X150545612Y-85601049D01*
X150489253Y-85532374D01*
X150447374Y-85454025D01*
X150421585Y-85369009D01*
X150415060Y-85302757D01*
X150415061Y-84258442D01*
X150421586Y-84192190D01*
X150447376Y-84107172D01*
X150489254Y-84028825D01*
X150545612Y-83960151D01*
X150614286Y-83903793D01*
X150692635Y-83861914D01*
X150777651Y-83836125D01*
X150866060Y-83827418D01*
X150954470Y-83836125D01*
G37*
G36*
X152224470Y-83836125D02*
G01*
X152309486Y-83861914D01*
X152387835Y-83903793D01*
X152456509Y-83960151D01*
X152512867Y-84028825D01*
X152554745Y-84107172D01*
X152580535Y-84192190D01*
X152587060Y-84258442D01*
X152587060Y-85302758D01*
X152580535Y-85369010D01*
X152554746Y-85454026D01*
X152512867Y-85532375D01*
X152456509Y-85601048D01*
X152387834Y-85657407D01*
X152309485Y-85699286D01*
X152224469Y-85725075D01*
X152136060Y-85733782D01*
X152047650Y-85725075D01*
X151962634Y-85699286D01*
X151884285Y-85657407D01*
X151815612Y-85601049D01*
X151759253Y-85532374D01*
X151717374Y-85454025D01*
X151691585Y-85369009D01*
X151685060Y-85302757D01*
X151685061Y-84258442D01*
X151691586Y-84192190D01*
X151717376Y-84107172D01*
X151759254Y-84028825D01*
X151815612Y-83960151D01*
X151884286Y-83903793D01*
X151962635Y-83861914D01*
X152047651Y-83836125D01*
X152136060Y-83827418D01*
X152224470Y-83836125D01*
G37*
G36*
X117420588Y-83463005D02*
G01*
X117496083Y-83485906D01*
X117571579Y-83508807D01*
X117612685Y-83530779D01*
X117710731Y-83583185D01*
X117753971Y-83618672D01*
X117832699Y-83683281D01*
X117897308Y-83762009D01*
X117932795Y-83805249D01*
X117965798Y-83866994D01*
X118007173Y-83944401D01*
X118013492Y-83965232D01*
X118052975Y-84095392D01*
X118055349Y-84119491D01*
X118068441Y-84252414D01*
X118052975Y-84409436D01*
X118007173Y-84560427D01*
X117981265Y-84608897D01*
X117932795Y-84699579D01*
X117857779Y-84790985D01*
X117590005Y-85058759D01*
X117498599Y-85133775D01*
X117407917Y-85182245D01*
X117359447Y-85208153D01*
X117283951Y-85231054D01*
X117208456Y-85253955D01*
X117051434Y-85269421D01*
X116894412Y-85253955D01*
X116818917Y-85231054D01*
X116743421Y-85208153D01*
X116694951Y-85182245D01*
X116604269Y-85133775D01*
X116561029Y-85098288D01*
X116482301Y-85033679D01*
X116417692Y-84954951D01*
X116382205Y-84911711D01*
X116317674Y-84790981D01*
X116307827Y-84772559D01*
X116262025Y-84621567D01*
X116256003Y-84560426D01*
X116246559Y-84464546D01*
X116262025Y-84307524D01*
X116307827Y-84156534D01*
X116307827Y-84156533D01*
X116340508Y-84095392D01*
X116382205Y-84017381D01*
X116457221Y-83925975D01*
X116724995Y-83658201D01*
X116816401Y-83583185D01*
X116914447Y-83530779D01*
X116955553Y-83508807D01*
X117106543Y-83463005D01*
X117263566Y-83447539D01*
X117420588Y-83463005D01*
G37*
G36*
X171641201Y-83161674D02*
G01*
X171741475Y-83203209D01*
X171741476Y-83203210D01*
X171831722Y-83263510D01*
X171908470Y-83340258D01*
X171908471Y-83340260D01*
X171968771Y-83430505D01*
X172010306Y-83530779D01*
X172031480Y-83637230D01*
X172031480Y-83745770D01*
X172010306Y-83852221D01*
X171968771Y-83952495D01*
X171960261Y-83965231D01*
X171908470Y-84042742D01*
X171831722Y-84119490D01*
X171786292Y-84149845D01*
X171741475Y-84179791D01*
X171641201Y-84221326D01*
X171534750Y-84242500D01*
X171426210Y-84242500D01*
X171319759Y-84221326D01*
X171219485Y-84179791D01*
X171174668Y-84149845D01*
X171129238Y-84119490D01*
X171052490Y-84042742D01*
X171000699Y-83965231D01*
X170992189Y-83952495D01*
X170950654Y-83852221D01*
X170929480Y-83745770D01*
X170929480Y-83637230D01*
X170950654Y-83530779D01*
X170992189Y-83430505D01*
X171052489Y-83340260D01*
X171052490Y-83340258D01*
X171129238Y-83263510D01*
X171219484Y-83203210D01*
X171219485Y-83203209D01*
X171319759Y-83161674D01*
X171426210Y-83140500D01*
X171534750Y-83140500D01*
X171641201Y-83161674D01*
G37*
G36*
X117420588Y-80923005D02*
G01*
X117496083Y-80945906D01*
X117571579Y-80968807D01*
X117620049Y-80994715D01*
X117710731Y-81043185D01*
X117753971Y-81078672D01*
X117832699Y-81143281D01*
X117897308Y-81222009D01*
X117932795Y-81265249D01*
X117981265Y-81355931D01*
X118007173Y-81404401D01*
X118052975Y-81555393D01*
X118068441Y-81712414D01*
X118052975Y-81869436D01*
X118007173Y-82020427D01*
X117981265Y-82068897D01*
X117932795Y-82159579D01*
X117857779Y-82250985D01*
X117590005Y-82518759D01*
X117498599Y-82593775D01*
X117407917Y-82642245D01*
X117359447Y-82668153D01*
X117283951Y-82691054D01*
X117208456Y-82713955D01*
X117051434Y-82729421D01*
X116894412Y-82713955D01*
X116818917Y-82691054D01*
X116743421Y-82668153D01*
X116694951Y-82642245D01*
X116604269Y-82593775D01*
X116561029Y-82558288D01*
X116482301Y-82493679D01*
X116417692Y-82414951D01*
X116382205Y-82371711D01*
X116317674Y-82250981D01*
X116307827Y-82232559D01*
X116262025Y-82081567D01*
X116256003Y-82020426D01*
X116246559Y-81924546D01*
X116262025Y-81767524D01*
X116307827Y-81616534D01*
X116307827Y-81616533D01*
X116340508Y-81555392D01*
X116382205Y-81477381D01*
X116457221Y-81385975D01*
X116724995Y-81118201D01*
X116816401Y-81043185D01*
X116907083Y-80994715D01*
X116955553Y-80968807D01*
X117106543Y-80923005D01*
X117263566Y-80907539D01*
X117420588Y-80923005D01*
G37*
G36*
X117420588Y-78383005D02*
G01*
X117496083Y-78405906D01*
X117571579Y-78428807D01*
X117620049Y-78454715D01*
X117710731Y-78503185D01*
X117753971Y-78538672D01*
X117832699Y-78603281D01*
X117897308Y-78682009D01*
X117932795Y-78725249D01*
X117981265Y-78815931D01*
X118007173Y-78864401D01*
X118052975Y-79015393D01*
X118068441Y-79172414D01*
X118052975Y-79329436D01*
X118007173Y-79480427D01*
X117981265Y-79528897D01*
X117932795Y-79619579D01*
X117857779Y-79710985D01*
X117590005Y-79978759D01*
X117498599Y-80053775D01*
X117407917Y-80102245D01*
X117359447Y-80128153D01*
X117283951Y-80151054D01*
X117208456Y-80173955D01*
X117051434Y-80189421D01*
X116894412Y-80173955D01*
X116818917Y-80151054D01*
X116743421Y-80128153D01*
X116694951Y-80102245D01*
X116604269Y-80053775D01*
X116561029Y-80018288D01*
X116482301Y-79953679D01*
X116417692Y-79874951D01*
X116382205Y-79831711D01*
X116317674Y-79710981D01*
X116307827Y-79692559D01*
X116262025Y-79541567D01*
X116256003Y-79480426D01*
X116246559Y-79384546D01*
X116262025Y-79227524D01*
X116307827Y-79076534D01*
X116307827Y-79076533D01*
X116340508Y-79015392D01*
X116382205Y-78937381D01*
X116457221Y-78845975D01*
X116724995Y-78578201D01*
X116816401Y-78503185D01*
X116907083Y-78454715D01*
X116955553Y-78428807D01*
X117031049Y-78405906D01*
X117106543Y-78383005D01*
X117263566Y-78367539D01*
X117420588Y-78383005D01*
G37*
G36*
X166398946Y-73720807D02*
G01*
X166582581Y-73757334D01*
X166928541Y-73900636D01*
X167239897Y-74108677D01*
X167504683Y-74373463D01*
X167712724Y-74684819D01*
X167856026Y-75030779D01*
X167929080Y-75398048D01*
X167929080Y-75772512D01*
X167856026Y-76139781D01*
X167712724Y-76485741D01*
X167504683Y-76797097D01*
X167239897Y-77061883D01*
X166928541Y-77269924D01*
X166582581Y-77413226D01*
X166398946Y-77449753D01*
X166215313Y-77486280D01*
X165840847Y-77486280D01*
X165657214Y-77449753D01*
X165473579Y-77413226D01*
X165127619Y-77269924D01*
X164816263Y-77061883D01*
X164551477Y-76797097D01*
X164343436Y-76485741D01*
X164200134Y-76139781D01*
X164127080Y-75772512D01*
X164127080Y-75398048D01*
X164200134Y-75030779D01*
X164343436Y-74684819D01*
X164551477Y-74373463D01*
X164816263Y-74108677D01*
X165127619Y-73900636D01*
X165473579Y-73757334D01*
X165657214Y-73720807D01*
X165840847Y-73684280D01*
X166215313Y-73684280D01*
X166398946Y-73720807D01*
G37*
G36*
X121898946Y-73720807D02*
G01*
X122082581Y-73757334D01*
X122428541Y-73900636D01*
X122739897Y-74108677D01*
X123004683Y-74373463D01*
X123212724Y-74684819D01*
X123356026Y-75030779D01*
X123429080Y-75398048D01*
X123429080Y-75772512D01*
X123356026Y-76139781D01*
X123212724Y-76485741D01*
X123004683Y-76797097D01*
X122739897Y-77061883D01*
X122428541Y-77269924D01*
X122082581Y-77413226D01*
X121898946Y-77449753D01*
X121715313Y-77486280D01*
X121340847Y-77486280D01*
X121157214Y-77449753D01*
X120973579Y-77413226D01*
X120627619Y-77269924D01*
X120316263Y-77061883D01*
X120051477Y-76797097D01*
X119843436Y-76485741D01*
X119700134Y-76139781D01*
X119627080Y-75772512D01*
X119627080Y-75398048D01*
X119700134Y-75030779D01*
X119843436Y-74684819D01*
X120051477Y-74373463D01*
X120316263Y-74108677D01*
X120627619Y-73900636D01*
X120973579Y-73757334D01*
X121157214Y-73720807D01*
X121340847Y-73684280D01*
X121715313Y-73684280D01*
X121898946Y-73720807D01*
G37*
G36*
X156341540Y-76245340D02*
G01*
X154889540Y-76245340D01*
X154889540Y-71943340D01*
X156341540Y-71943340D01*
X156341540Y-76245340D01*
G37*
G36*
X161991540Y-76245340D02*
G01*
X160539540Y-76245340D01*
X160539540Y-71943340D01*
X161991540Y-71943340D01*
X161991540Y-76245340D01*
G37*
G36*
X128277828Y-74330920D02*
G01*
X128277830Y-74330921D01*
X128277831Y-74330921D01*
X128419054Y-74389417D01*
X128419057Y-74389419D01*
X128546149Y-74474339D01*
X128654241Y-74582431D01*
X128722654Y-74684819D01*
X128739163Y-74709526D01*
X128797659Y-74850749D01*
X128827480Y-75000671D01*
X128827480Y-75153529D01*
X128797659Y-75303451D01*
X128739163Y-75444674D01*
X128739161Y-75444677D01*
X128654241Y-75571769D01*
X128546149Y-75679861D01*
X128419057Y-75764781D01*
X128419054Y-75764783D01*
X128277831Y-75823279D01*
X128277830Y-75823279D01*
X128277828Y-75823280D01*
X128127911Y-75853100D01*
X127975049Y-75853100D01*
X127825132Y-75823280D01*
X127825130Y-75823279D01*
X127825129Y-75823279D01*
X127683906Y-75764783D01*
X127683903Y-75764781D01*
X127556811Y-75679861D01*
X127448719Y-75571769D01*
X127363799Y-75444677D01*
X127363797Y-75444674D01*
X127305301Y-75303451D01*
X127275480Y-75153529D01*
X127275480Y-75000671D01*
X127305301Y-74850749D01*
X127363797Y-74709526D01*
X127380306Y-74684819D01*
X127448719Y-74582431D01*
X127556811Y-74474339D01*
X127683903Y-74389419D01*
X127683906Y-74389417D01*
X127825129Y-74330921D01*
X127825130Y-74330921D01*
X127825132Y-74330920D01*
X127975049Y-74301100D01*
X128127911Y-74301100D01*
X128277828Y-74330920D01*
G37*
G36*
X133277828Y-74330920D02*
G01*
X133277830Y-74330921D01*
X133277831Y-74330921D01*
X133419054Y-74389417D01*
X133419057Y-74389419D01*
X133546149Y-74474339D01*
X133654241Y-74582431D01*
X133722654Y-74684819D01*
X133739163Y-74709526D01*
X133797659Y-74850749D01*
X133827480Y-75000671D01*
X133827480Y-75153529D01*
X133797659Y-75303451D01*
X133739163Y-75444674D01*
X133739161Y-75444677D01*
X133654241Y-75571769D01*
X133546149Y-75679861D01*
X133419057Y-75764781D01*
X133419054Y-75764783D01*
X133277831Y-75823279D01*
X133277830Y-75823279D01*
X133277828Y-75823280D01*
X133127911Y-75853100D01*
X132975049Y-75853100D01*
X132825132Y-75823280D01*
X132825130Y-75823279D01*
X132825129Y-75823279D01*
X132683906Y-75764783D01*
X132683903Y-75764781D01*
X132556811Y-75679861D01*
X132448719Y-75571769D01*
X132363799Y-75444677D01*
X132363797Y-75444674D01*
X132305301Y-75303451D01*
X132275480Y-75153529D01*
X132275480Y-75000671D01*
X132305301Y-74850749D01*
X132363797Y-74709526D01*
X132380306Y-74684819D01*
X132448719Y-74582431D01*
X132556811Y-74474339D01*
X132683903Y-74389419D01*
X132683906Y-74389417D01*
X132825129Y-74330921D01*
X132825130Y-74330921D01*
X132825132Y-74330920D01*
X132975049Y-74301100D01*
X133127911Y-74301100D01*
X133277828Y-74330920D01*
G37*
G36*
X143925469Y-72745118D02*
G01*
X143991629Y-72765189D01*
X143991632Y-72765190D01*
X144052609Y-72797782D01*
X144071557Y-72813333D01*
X144106056Y-72841644D01*
X144134367Y-72876143D01*
X144149918Y-72895091D01*
X144182510Y-72956068D01*
X144182511Y-72956071D01*
X144202582Y-73022232D01*
X144209358Y-73091040D01*
X144202582Y-73159848D01*
X144182511Y-73226009D01*
X144182510Y-73226012D01*
X144149918Y-73286989D01*
X144134367Y-73305937D01*
X144106056Y-73340436D01*
X144071639Y-73368680D01*
X144052609Y-73384298D01*
X143991632Y-73416890D01*
X143991629Y-73416891D01*
X143925469Y-73436962D01*
X143873904Y-73442040D01*
X143039416Y-73442040D01*
X142987851Y-73436962D01*
X142921691Y-73416891D01*
X142921688Y-73416890D01*
X142860711Y-73384298D01*
X142841681Y-73368680D01*
X142807264Y-73340436D01*
X142778953Y-73305937D01*
X142763402Y-73286989D01*
X142730810Y-73226012D01*
X142730809Y-73226009D01*
X142710738Y-73159848D01*
X142703962Y-73091040D01*
X142710738Y-73022232D01*
X142730809Y-72956071D01*
X142730810Y-72956068D01*
X142763402Y-72895091D01*
X142778953Y-72876143D01*
X142807264Y-72841644D01*
X142841763Y-72813333D01*
X142860711Y-72797782D01*
X142921688Y-72765190D01*
X142921691Y-72765189D01*
X142987851Y-72745118D01*
X143039416Y-72740040D01*
X143873904Y-72740040D01*
X143925469Y-72745118D01*
G37*
G36*
X148425469Y-72745118D02*
G01*
X148491629Y-72765189D01*
X148491632Y-72765190D01*
X148552609Y-72797782D01*
X148571557Y-72813333D01*
X148606056Y-72841644D01*
X148634367Y-72876143D01*
X148649918Y-72895091D01*
X148682510Y-72956068D01*
X148682511Y-72956071D01*
X148702582Y-73022232D01*
X148709358Y-73091040D01*
X148702582Y-73159848D01*
X148682511Y-73226009D01*
X148682510Y-73226012D01*
X148649918Y-73286989D01*
X148634367Y-73305937D01*
X148606056Y-73340436D01*
X148571639Y-73368680D01*
X148552609Y-73384298D01*
X148491632Y-73416890D01*
X148491629Y-73416891D01*
X148425469Y-73436962D01*
X148373904Y-73442040D01*
X147539416Y-73442040D01*
X147487851Y-73436962D01*
X147421691Y-73416891D01*
X147421688Y-73416890D01*
X147360711Y-73384298D01*
X147341681Y-73368680D01*
X147307264Y-73340436D01*
X147278953Y-73305937D01*
X147263402Y-73286989D01*
X147230810Y-73226012D01*
X147230809Y-73226009D01*
X147210738Y-73159848D01*
X147203962Y-73091040D01*
X147210738Y-73022232D01*
X147230809Y-72956071D01*
X147230810Y-72956068D01*
X147263402Y-72895091D01*
X147278953Y-72876143D01*
X147307264Y-72841644D01*
X147341763Y-72813333D01*
X147360711Y-72797782D01*
X147421688Y-72765190D01*
X147421691Y-72765189D01*
X147487851Y-72745118D01*
X147539416Y-72740040D01*
X148373904Y-72740040D01*
X148425469Y-72745118D01*
G37*
G36*
X127179098Y-71385520D02*
G01*
X127269884Y-71413060D01*
X127301816Y-71422746D01*
X127414905Y-71483194D01*
X127514034Y-71564546D01*
X127595386Y-71663675D01*
X127655834Y-71776764D01*
X127665520Y-71808696D01*
X127693060Y-71899482D01*
X127702480Y-71995127D01*
X127702480Y-72759073D01*
X127693060Y-72854718D01*
X127680813Y-72895091D01*
X127655834Y-72977436D01*
X127595386Y-73090525D01*
X127514034Y-73189653D01*
X127414904Y-73271006D01*
X127301815Y-73331454D01*
X127272208Y-73340435D01*
X127179097Y-73368680D01*
X127051480Y-73381249D01*
X126923862Y-73368680D01*
X126830751Y-73340435D01*
X126801144Y-73331454D01*
X126688055Y-73271006D01*
X126588927Y-73189654D01*
X126507574Y-73090524D01*
X126447126Y-72977435D01*
X126437440Y-72945503D01*
X126409900Y-72854717D01*
X126403620Y-72790954D01*
X126400480Y-72759073D01*
X126400480Y-71995126D01*
X126402364Y-71975998D01*
X126409900Y-71899482D01*
X126447125Y-71776768D01*
X126472088Y-71730066D01*
X126507575Y-71663675D01*
X126588927Y-71564546D01*
X126688056Y-71483194D01*
X126801145Y-71422746D01*
X126833077Y-71413060D01*
X126923863Y-71385520D01*
X127051480Y-71372951D01*
X127179098Y-71385520D01*
G37*
G36*
X134179097Y-71385520D02*
G01*
X134269883Y-71413060D01*
X134301815Y-71422746D01*
X134414904Y-71483194D01*
X134514034Y-71564547D01*
X134595386Y-71663675D01*
X134655834Y-71776764D01*
X134665520Y-71808696D01*
X134693060Y-71899482D01*
X134702480Y-71995127D01*
X134702480Y-72759073D01*
X134693060Y-72854718D01*
X134680813Y-72895091D01*
X134655834Y-72977436D01*
X134595386Y-73090525D01*
X134514034Y-73189654D01*
X134414905Y-73271006D01*
X134301816Y-73331454D01*
X134272209Y-73340435D01*
X134179098Y-73368680D01*
X134051480Y-73381249D01*
X133923863Y-73368680D01*
X133830752Y-73340435D01*
X133801145Y-73331454D01*
X133688056Y-73271006D01*
X133588927Y-73189654D01*
X133507575Y-73090525D01*
X133472088Y-73024134D01*
X133447125Y-72977432D01*
X133409900Y-72854718D01*
X133400480Y-72759073D01*
X133400480Y-71995128D01*
X133409900Y-71899483D01*
X133447125Y-71776769D01*
X133447126Y-71776765D01*
X133507574Y-71663676D01*
X133588927Y-71564546D01*
X133688055Y-71483194D01*
X133801144Y-71422746D01*
X133833076Y-71413060D01*
X133923862Y-71385520D01*
X134051480Y-71372951D01*
X134179097Y-71385520D01*
G37*
G36*
X146175469Y-70545118D02*
G01*
X146241629Y-70565189D01*
X146241632Y-70565190D01*
X146302609Y-70597782D01*
X146321557Y-70613333D01*
X146356056Y-70641644D01*
X146384367Y-70676143D01*
X146399918Y-70695091D01*
X146432510Y-70756068D01*
X146432511Y-70756071D01*
X146452582Y-70822232D01*
X146459358Y-70891040D01*
X146452582Y-70959848D01*
X146432511Y-71026009D01*
X146432510Y-71026012D01*
X146399918Y-71086989D01*
X146384367Y-71105937D01*
X146356056Y-71140436D01*
X146321557Y-71168747D01*
X146302609Y-71184298D01*
X146241632Y-71216890D01*
X146241629Y-71216891D01*
X146175469Y-71236962D01*
X146123904Y-71242040D01*
X145289416Y-71242040D01*
X145237851Y-71236962D01*
X145171691Y-71216891D01*
X145171688Y-71216890D01*
X145110711Y-71184298D01*
X145091763Y-71168747D01*
X145057264Y-71140436D01*
X145028953Y-71105937D01*
X145013402Y-71086989D01*
X144980810Y-71026012D01*
X144980809Y-71026009D01*
X144960738Y-70959848D01*
X144953962Y-70891040D01*
X144960738Y-70822232D01*
X144980809Y-70756071D01*
X144980810Y-70756068D01*
X145013402Y-70695091D01*
X145028953Y-70676143D01*
X145057264Y-70641644D01*
X145091763Y-70613333D01*
X145110711Y-70597782D01*
X145171688Y-70565190D01*
X145171691Y-70565189D01*
X145237851Y-70545118D01*
X145289416Y-70540040D01*
X146123904Y-70540040D01*
X146175469Y-70545118D01*
G37*
G36*
X139156941Y-69688474D02*
G01*
X139257215Y-69730009D01*
X139257216Y-69730010D01*
X139347462Y-69790310D01*
X139424210Y-69867058D01*
X139424211Y-69867060D01*
X139484511Y-69957305D01*
X139526046Y-70057579D01*
X139547220Y-70164030D01*
X139547220Y-70272570D01*
X139526046Y-70379021D01*
X139484511Y-70479295D01*
X139484510Y-70479296D01*
X139424210Y-70569542D01*
X139347462Y-70646290D01*
X139302032Y-70676645D01*
X139257215Y-70706591D01*
X139156941Y-70748126D01*
X139050490Y-70769300D01*
X138941950Y-70769300D01*
X138835499Y-70748126D01*
X138735225Y-70706591D01*
X138690408Y-70676645D01*
X138644978Y-70646290D01*
X138568230Y-70569542D01*
X138507930Y-70479296D01*
X138507929Y-70479295D01*
X138466394Y-70379021D01*
X138445220Y-70272570D01*
X138445220Y-70164030D01*
X138466394Y-70057579D01*
X138507929Y-69957305D01*
X138568229Y-69867060D01*
X138568230Y-69867058D01*
X138644978Y-69790310D01*
X138735224Y-69730010D01*
X138735225Y-69730009D01*
X138835499Y-69688474D01*
X138941950Y-69667300D01*
X139050490Y-69667300D01*
X139156941Y-69688474D01*
G37*
G36*
X151456941Y-69688474D02*
G01*
X151557215Y-69730009D01*
X151557216Y-69730010D01*
X151647462Y-69790310D01*
X151724210Y-69867058D01*
X151724211Y-69867060D01*
X151784511Y-69957305D01*
X151826046Y-70057579D01*
X151847220Y-70164030D01*
X151847220Y-70272570D01*
X151826046Y-70379021D01*
X151784511Y-70479295D01*
X151784510Y-70479296D01*
X151724210Y-70569542D01*
X151647462Y-70646290D01*
X151602032Y-70676645D01*
X151557215Y-70706591D01*
X151456941Y-70748126D01*
X151350490Y-70769300D01*
X151241950Y-70769300D01*
X151135499Y-70748126D01*
X151035225Y-70706591D01*
X150990408Y-70676645D01*
X150944978Y-70646290D01*
X150868230Y-70569542D01*
X150807930Y-70479296D01*
X150807929Y-70479295D01*
X150766394Y-70379021D01*
X150745220Y-70272570D01*
X150745220Y-70164030D01*
X150766394Y-70057579D01*
X150807929Y-69957305D01*
X150868229Y-69867060D01*
X150868230Y-69867058D01*
X150944978Y-69790310D01*
X151035224Y-69730010D01*
X151035225Y-69730009D01*
X151135499Y-69688474D01*
X151241950Y-69667300D01*
X151350490Y-69667300D01*
X151456941Y-69688474D01*
G37*
M02*
