M48
; DRILL file {KiCad (5.1.6)-1} date 07/19/20 17:34:06
; FORMAT={-:-/ absolute / inch / decimal}
; #@! TF.CreationDate,2020-07-19T17:34:06+08:00
; #@! TF.GenerationSoftware,Kicad,Pcbnew,(5.1.6)-1
; #@! TF.FileFunction,Plated,1,2,PTH
FMAT,2
INCH
T1C0.0118
T2C0.0157
T3C0.0236
T4C0.0335
T5C0.0354
%
G90
G05
T2
X4.5605Y-3.6728
X4.6786Y-3.6728
X4.7154Y-3.5617
X4.718Y-3.6728
X4.7272Y-3.4334
X4.7574Y-3.6728
X4.8056Y-3.1959
X4.8058Y-3.2451
X4.8339Y-3.6902
X4.8615Y-3.0978
X4.8801Y-3.7456
X4.9293Y-2.8195
X4.9305Y-3.4361
X4.9319Y-3.4872
X4.9418Y-3.7002
X4.9854Y-3.7581
X5.004Y-3.3157
X5.0085Y-4.618
X5.0358Y-3.7605
X5.047Y-4.687
X5.0769Y-3.7549
X5.0852Y-4.4355
X5.0909Y-4.7527
X5.0929Y-3.925
X5.1049Y-3.5369
X5.1163Y-3.7549
X5.1189Y-4.0053
X5.1201Y-4.0854
X5.1279Y-4.3818
X5.1327Y-3.1451
X5.1363Y-4.4364
X5.1396Y-2.7885
X5.1556Y-3.7549
X5.1569Y-4.0468
X5.1573Y-4.9256
X5.1581Y-4.4687
X5.1693Y-4.3811
X5.1729Y-4.0889
X5.1745Y-4.6272
X5.1757Y-3.3084
X5.1813Y-3.5515
X5.1836Y-4.4368
X5.195Y-3.7549
X5.1967Y-4.9256
X5.212Y-4.4687
X5.2133Y-4.3832
X5.232Y-4.4357
X5.2344Y-3.7549
X5.236Y-4.9256
X5.2373Y-3.9179
X5.2443Y-4.63
X5.259Y-4.468
X5.2593Y-4.3828
X5.2725Y-4.1679
X5.2738Y-3.7549
X5.2754Y-4.9256
X5.2796Y-4.4343
X5.28Y-3.4052
X5.28Y-3.4446
X5.28Y-3.4839
X5.28Y-3.5233
X5.2846Y-3.9135
X5.2912Y-4.2853
X5.298Y-4.221
X5.3004Y-4.0399
X5.3092Y-4.4673
X5.3093Y-4.353
X5.3131Y-3.7547
X5.3148Y-4.9256
X5.3149Y-4.7601
X5.3194Y-3.4052
X5.3194Y-3.4446
X5.3194Y-3.4839
X5.3194Y-3.5233
X5.3329Y-4.3164
X5.3333Y-4.434
X5.3432Y-2.8015
X5.348Y-4.2557
X5.3525Y-3.7547
X5.3542Y-4.9256
X5.3693Y-4.3458
X5.3698Y-4.0516
X5.3828Y-4.2836
X5.3935Y-4.9256
X5.4069Y-4.3757
X5.4165Y-4.318
X5.4329Y-4.9256
X5.4334Y-4.1739
X5.4485Y-4.3546
X5.4503Y-4.4033
X5.4559Y-4.7739
X5.4698Y-4.0954
X5.4723Y-4.9256
X5.4852Y-3.7779
X5.5116Y-4.9256
X5.5278Y-4.6405
X5.551Y-4.9256
X5.5525Y-4.5237
X5.5672Y-3.7964
X5.5672Y-3.8358
X5.5672Y-3.8751
X5.5672Y-3.9145
X5.5904Y-4.9256
X5.6026Y-2.9594
X5.6066Y-3.7964
X5.6066Y-3.8358
X5.6066Y-3.8751
X5.6066Y-3.9145
X5.6095Y-4.7636
X5.6115Y-4.296
X5.6297Y-4.9256
X5.6459Y-3.7964
X5.6459Y-3.8358
X5.6459Y-3.8751
X5.6459Y-3.9145
X5.6535Y-4.6069
X5.6691Y-4.9256
X5.6917Y-3.2351
X5.6944Y-4.3301
X5.7085Y-4.9256
X5.7872Y-4.9256
X5.7956Y-4.6419
X5.8266Y-4.9256
X5.8534Y-3.0122
X5.8534Y-3.0516
X5.8534Y-3.091
X5.8534Y-3.1303
X5.8534Y-3.1697
X5.8534Y-3.2091
X5.8534Y-3.2484
X5.866Y-4.9256
X5.8928Y-2.8547
X5.8928Y-2.8941
X5.8928Y-2.9335
X5.8928Y-2.9728
X5.8928Y-3.0122
X5.8928Y-3.0516
X5.8928Y-3.091
X5.8928Y-3.1303
X5.8928Y-3.1697
X5.8928Y-3.2091
X5.8928Y-3.2484
X5.9305Y-4.8217
X5.9321Y-2.8547
X5.9321Y-2.8941
X5.9321Y-2.9335
X5.9321Y-2.9728
X5.9321Y-3.0122
X5.9321Y-3.0516
X5.9321Y-3.091
X5.9321Y-3.1303
X5.9321Y-3.1697
X5.9321Y-3.2091
X5.9321Y-3.2484
X5.9715Y-2.8547
X5.9715Y-2.8941
X5.9715Y-2.9335
X5.9715Y-2.9728
X5.9715Y-3.0122
X5.9715Y-3.1697
X5.9715Y-3.2091
X5.9715Y-3.2484
X6.0109Y-2.8547
X6.0109Y-2.8941
X6.0109Y-2.9335
X6.0109Y-2.9728
X6.0109Y-3.0122
X6.0109Y-3.1697
X6.0109Y-3.2091
X6.0109Y-3.2484
X6.0379Y-4.1357
X6.0503Y-2.8547
X6.0503Y-2.8941
X6.0503Y-2.9335
X6.0503Y-2.9728
X6.0503Y-3.0122
X6.0503Y-3.1697
X6.0503Y-3.2091
X6.0503Y-3.2484
X6.0896Y-3.1697
X6.0896Y-3.2091
X6.0896Y-3.2484
X6.0915Y-3.3053
X6.0995Y-3.7395
X6.1011Y-3.6597
X6.1013Y-3.5806
X6.129Y-3.2484
X6.1585Y-3.9239
X6.1612Y-3.2247
X6.2025Y-3.8607
X6.2077Y-3.2484
X6.2098Y-4.0516
X6.2357Y-3.7683
X6.2471Y-3.2484
X6.2525Y-4.1373
X6.2578Y-3.8359
X6.2865Y-3.1697
X6.2865Y-3.2091
X6.2865Y-3.2484
X6.308Y-3.684
X6.3092Y-3.8333
X6.3258Y-3.0516
X6.3258Y-3.091
X6.3258Y-3.1303
X6.3258Y-3.1697
X6.3258Y-3.2091
X6.3258Y-3.2484
X6.3597Y-3.8409
X6.3636Y-4.0599
X6.3652Y-3.0516
X6.4046Y-2.8547
X6.4046Y-2.8941
X6.4046Y-2.9335
X6.4046Y-2.9728
X6.4046Y-3.0122
X6.4046Y-3.0516
X6.409Y-3.8399
X6.439Y-3.3607
X6.444Y-2.8547
X6.444Y-2.8941
X6.444Y-2.9335
X6.444Y-3.0122
X6.444Y-3.0516
X6.5098Y-3.4555
X6.5256Y-4.2889
X6.5436Y-4.0939
X6.5635Y-4.8532
X6.5636Y-4.1589
X6.5976Y-3.7303
X6.5989Y-3.5037
X6.6014Y-3.0516
X6.6088Y-3.9706
X6.6408Y-3.0122
X6.6408Y-3.0516
X6.6563Y-3.6629
X6.6802Y-3.0122
X6.6802Y-3.0516
X6.7195Y-3.0516
X6.7195Y-3.091
X6.7195Y-3.1303
X6.7195Y-3.1697
X6.7195Y-3.2091
X6.7195Y-3.2484
T4
X5.0414Y-2.9558
X5.2382Y-2.9558
T5
X5.0477Y-4.8255
X5.1477Y-4.8255
X5.4021Y-4.825
X5.5021Y-4.825
X5.2249Y-4.825
X5.3249Y-4.825
X5.5793Y-4.825
X5.6793Y-4.825
X4.6125Y-3.1212
X4.6125Y-3.2212
X4.6125Y-3.3212
X4.6125Y-3.4212
X4.6125Y-3.5212
X4.6125Y-3.6212
T1
G00X5.6361Y-2.8776
M15
G01X5.6597Y-2.8776
M16
G05
G00X5.7247Y-2.791
M15
G01X5.7483Y-2.791
M16
G05
G00X5.8133Y-2.8776
M15
G01X5.8369Y-2.8776
M16
G05
T3
G00X5.002Y-2.8633
M15
G01X5.002Y-2.8357
M16
G05
G00X5.2776Y-2.8357
M15
G01X5.2776Y-2.8633
M16
G05
T0
M30
