G04 #@! TF.GenerationSoftware,KiCad,Pcbnew,(5.1.6)-1*
G04 #@! TF.CreationDate,2020-07-19T17:34:05+08:00*
G04 #@! TF.ProjectId,ESP32GW,45535033-3247-4572-9e6b-696361645f70,rev?*
G04 #@! TF.SameCoordinates,Original*
G04 #@! TF.FileFunction,Legend,Bot*
G04 #@! TF.FilePolarity,Positive*
%FSLAX46Y46*%
G04 Gerber Fmt 4.6, Leading zero omitted, Abs format (unit mm)*
G04 Created by KiCad (PCBNEW (5.1.6)-1) date 2020-07-19 17:34:05*
%MOMM*%
%LPD*%
G01*
G04 APERTURE LIST*
%ADD10C,0.150000*%
G04 APERTURE END LIST*
D10*
X119583200Y-82915760D02*
X123144280Y-82915760D01*
X119583200Y-85455760D02*
X123144280Y-85455760D01*
X119583200Y-80375760D02*
X123144280Y-80375760D01*
X119583200Y-90535760D02*
X123144280Y-90535760D01*
X119583200Y-87995760D02*
X123144280Y-87995760D01*
X123144280Y-77835760D02*
X123144280Y-93075760D01*
X119583200Y-77835760D02*
X123144280Y-77835760D01*
X122068506Y-91809577D02*
X122335173Y-91809577D01*
X122335173Y-92228624D02*
X122335173Y-91428624D01*
X121954220Y-91428624D01*
X121192316Y-92228624D02*
X121458982Y-91847672D01*
X121649459Y-92228624D02*
X121649459Y-91428624D01*
X121344697Y-91428624D01*
X121268506Y-91466720D01*
X121230411Y-91504815D01*
X121192316Y-91581005D01*
X121192316Y-91695291D01*
X121230411Y-91771481D01*
X121268506Y-91809577D01*
X121344697Y-91847672D01*
X121649459Y-91847672D01*
X120925649Y-91428624D02*
X120392316Y-92228624D01*
X120392316Y-91428624D02*
X120925649Y-92228624D01*
X121973268Y-89269577D02*
X122239935Y-89269577D01*
X122239935Y-89688624D02*
X122239935Y-88888624D01*
X121858982Y-88888624D01*
X121668506Y-88888624D02*
X121211363Y-88888624D01*
X121439935Y-89688624D02*
X121439935Y-88888624D01*
X121020887Y-88888624D02*
X120487554Y-89688624D01*
X120487554Y-88888624D02*
X121020887Y-89688624D01*
X121554220Y-86348624D02*
X121935173Y-86348624D01*
X121973268Y-86729577D01*
X121935173Y-86691481D01*
X121858982Y-86653386D01*
X121668506Y-86653386D01*
X121592316Y-86691481D01*
X121554220Y-86729577D01*
X121516125Y-86805767D01*
X121516125Y-86996243D01*
X121554220Y-87072434D01*
X121592316Y-87110529D01*
X121668506Y-87148624D01*
X121858982Y-87148624D01*
X121935173Y-87110529D01*
X121973268Y-87072434D01*
X121287554Y-86348624D02*
X121020887Y-87148624D01*
X120754220Y-86348624D01*
X122011363Y-83846720D02*
X122087554Y-83808624D01*
X122201840Y-83808624D01*
X122316125Y-83846720D01*
X122392316Y-83922910D01*
X122430411Y-83999100D01*
X122468506Y-84151481D01*
X122468506Y-84265767D01*
X122430411Y-84418148D01*
X122392316Y-84494339D01*
X122316125Y-84570529D01*
X122201840Y-84608624D01*
X122125649Y-84608624D01*
X122011363Y-84570529D01*
X121973268Y-84532434D01*
X121973268Y-84265767D01*
X122125649Y-84265767D01*
X121630411Y-84608624D02*
X121630411Y-83808624D01*
X121173268Y-84608624D01*
X121173268Y-83808624D01*
X120792316Y-84608624D02*
X120792316Y-83808624D01*
X120601840Y-83808624D01*
X120487554Y-83846720D01*
X120411363Y-83922910D01*
X120373268Y-83999100D01*
X120335173Y-84151481D01*
X120335173Y-84265767D01*
X120373268Y-84418148D01*
X120411363Y-84494339D01*
X120487554Y-84570529D01*
X120601840Y-84608624D01*
X120792316Y-84608624D01*
X122411363Y-81268624D02*
X121954220Y-81268624D01*
X122182792Y-82068624D02*
X122182792Y-81268624D01*
X121763744Y-81268624D02*
X121230411Y-82068624D01*
X121230411Y-81268624D02*
X121763744Y-82068624D01*
X120925649Y-82068624D02*
X120925649Y-81268624D01*
X120735173Y-81268624D01*
X120620887Y-81306720D01*
X120544697Y-81382910D01*
X120506601Y-81459100D01*
X120468506Y-81611481D01*
X120468506Y-81725767D01*
X120506601Y-81878148D01*
X120544697Y-81954339D01*
X120620887Y-82030529D01*
X120735173Y-82068624D01*
X120925649Y-82068624D01*
X119583200Y-77835760D02*
X119583200Y-93075760D01*
X119583200Y-93075760D02*
X123144280Y-93075760D01*
X121935173Y-79528624D02*
X122201840Y-79147672D01*
X122392316Y-79528624D02*
X122392316Y-78728624D01*
X122087554Y-78728624D01*
X122011363Y-78766720D01*
X121973268Y-78804815D01*
X121935173Y-78881005D01*
X121935173Y-78995291D01*
X121973268Y-79071481D01*
X122011363Y-79109577D01*
X122087554Y-79147672D01*
X122392316Y-79147672D01*
X121668506Y-78728624D02*
X121135173Y-79528624D01*
X121135173Y-78728624D02*
X121668506Y-79528624D01*
X120830411Y-79528624D02*
X120830411Y-78728624D01*
X120639935Y-78728624D01*
X120525649Y-78766720D01*
X120449459Y-78842910D01*
X120411363Y-78919100D01*
X120373268Y-79071481D01*
X120373268Y-79185767D01*
X120411363Y-79338148D01*
X120449459Y-79414339D01*
X120525649Y-79490529D01*
X120639935Y-79528624D01*
X120830411Y-79528624D01*
X151575777Y-86615791D02*
X151575777Y-86882458D01*
X151994824Y-86996743D02*
X151994824Y-86615791D01*
X151194824Y-86615791D01*
X151194824Y-86996743D01*
X151271015Y-87301505D02*
X151232920Y-87339600D01*
X151194824Y-87415791D01*
X151194824Y-87606267D01*
X151232920Y-87682458D01*
X151271015Y-87720553D01*
X151347205Y-87758648D01*
X151423396Y-87758648D01*
X151537681Y-87720553D01*
X151994824Y-87263410D01*
X151994824Y-87758648D01*
X151271015Y-88063410D02*
X151232920Y-88101505D01*
X151194824Y-88177696D01*
X151194824Y-88368172D01*
X151232920Y-88444362D01*
X151271015Y-88482458D01*
X151347205Y-88520553D01*
X151423396Y-88520553D01*
X151537681Y-88482458D01*
X151994824Y-88025315D01*
X151994824Y-88520553D01*
X151690062Y-88863410D02*
X151690062Y-89472934D01*
X151461491Y-90196743D02*
X151994824Y-90196743D01*
X151156729Y-90006267D02*
X151728158Y-89815791D01*
X151728158Y-90311029D01*
X151194824Y-90768172D02*
X151194824Y-90844362D01*
X151232920Y-90920553D01*
X151271015Y-90958648D01*
X151347205Y-90996743D01*
X151499586Y-91034839D01*
X151690062Y-91034839D01*
X151842443Y-90996743D01*
X151918634Y-90958648D01*
X151956729Y-90920553D01*
X151994824Y-90844362D01*
X151994824Y-90768172D01*
X151956729Y-90691981D01*
X151918634Y-90653886D01*
X151842443Y-90615791D01*
X151690062Y-90577696D01*
X151499586Y-90577696D01*
X151347205Y-90615791D01*
X151271015Y-90653886D01*
X151232920Y-90691981D01*
X151194824Y-90768172D01*
X151194824Y-91530077D02*
X151194824Y-91606267D01*
X151232920Y-91682458D01*
X151271015Y-91720553D01*
X151347205Y-91758648D01*
X151499586Y-91796743D01*
X151690062Y-91796743D01*
X151842443Y-91758648D01*
X151918634Y-91720553D01*
X151956729Y-91682458D01*
X151994824Y-91606267D01*
X151994824Y-91530077D01*
X151956729Y-91453886D01*
X151918634Y-91415791D01*
X151842443Y-91377696D01*
X151690062Y-91339600D01*
X151499586Y-91339600D01*
X151347205Y-91377696D01*
X151271015Y-91415791D01*
X151232920Y-91453886D01*
X151194824Y-91530077D01*
X151994824Y-92139600D02*
X151194824Y-92139600D01*
X151766253Y-92406267D01*
X151194824Y-92672934D01*
X151994824Y-92672934D01*
X151271015Y-93015791D02*
X151232920Y-93053886D01*
X151194824Y-93130077D01*
X151194824Y-93320553D01*
X151232920Y-93396743D01*
X151271015Y-93434839D01*
X151347205Y-93472934D01*
X151423396Y-93472934D01*
X151537681Y-93434839D01*
X151994824Y-92977696D01*
X151994824Y-93472934D01*
X151271015Y-93777696D02*
X151232920Y-93815791D01*
X151194824Y-93891981D01*
X151194824Y-94082458D01*
X151232920Y-94158648D01*
X151271015Y-94196743D01*
X151347205Y-94234839D01*
X151423396Y-94234839D01*
X151537681Y-94196743D01*
X151994824Y-93739600D01*
X151994824Y-94234839D01*
X151956729Y-94539600D02*
X151994824Y-94653886D01*
X151994824Y-94844362D01*
X151956729Y-94920553D01*
X151918634Y-94958648D01*
X151842443Y-94996743D01*
X151766253Y-94996743D01*
X151690062Y-94958648D01*
X151651967Y-94920553D01*
X151613872Y-94844362D01*
X151575777Y-94691981D01*
X151537681Y-94615791D01*
X151499586Y-94577696D01*
X151423396Y-94539600D01*
X151347205Y-94539600D01*
X151271015Y-94577696D01*
X151232920Y-94615791D01*
X151194824Y-94691981D01*
X151194824Y-94882458D01*
X151232920Y-94996743D01*
X161940030Y-114456174D02*
X161978125Y-114494269D01*
X162092411Y-114532364D01*
X162168601Y-114532364D01*
X162282887Y-114494269D01*
X162359078Y-114418079D01*
X162397173Y-114341888D01*
X162435268Y-114189507D01*
X162435268Y-114075221D01*
X162397173Y-113922840D01*
X162359078Y-113846650D01*
X162282887Y-113770460D01*
X162168601Y-113732364D01*
X162092411Y-113732364D01*
X161978125Y-113770460D01*
X161940030Y-113808555D01*
X161140030Y-114456174D02*
X161178125Y-114494269D01*
X161292411Y-114532364D01*
X161368601Y-114532364D01*
X161482887Y-114494269D01*
X161559078Y-114418079D01*
X161597173Y-114341888D01*
X161635268Y-114189507D01*
X161635268Y-114075221D01*
X161597173Y-113922840D01*
X161559078Y-113846650D01*
X161482887Y-113770460D01*
X161368601Y-113732364D01*
X161292411Y-113732364D01*
X161178125Y-113770460D01*
X161140030Y-113808555D01*
X160835268Y-113808555D02*
X160797173Y-113770460D01*
X160720982Y-113732364D01*
X160530506Y-113732364D01*
X160454316Y-113770460D01*
X160416220Y-113808555D01*
X160378125Y-113884745D01*
X160378125Y-113960936D01*
X160416220Y-114075221D01*
X160873363Y-114532364D01*
X160378125Y-114532364D01*
X159654316Y-113732364D02*
X160035268Y-113732364D01*
X160073363Y-114113317D01*
X160035268Y-114075221D01*
X159959078Y-114037126D01*
X159768601Y-114037126D01*
X159692411Y-114075221D01*
X159654316Y-114113317D01*
X159616220Y-114189507D01*
X159616220Y-114379983D01*
X159654316Y-114456174D01*
X159692411Y-114494269D01*
X159768601Y-114532364D01*
X159959078Y-114532364D01*
X160035268Y-114494269D01*
X160073363Y-114456174D01*
X159349554Y-113732364D02*
X158854316Y-113732364D01*
X159120982Y-114037126D01*
X159006697Y-114037126D01*
X158930506Y-114075221D01*
X158892411Y-114113317D01*
X158854316Y-114189507D01*
X158854316Y-114379983D01*
X158892411Y-114456174D01*
X158930506Y-114494269D01*
X159006697Y-114532364D01*
X159235268Y-114532364D01*
X159311459Y-114494269D01*
X159349554Y-114456174D01*
X158397173Y-114075221D02*
X158473363Y-114037126D01*
X158511459Y-113999031D01*
X158549554Y-113922840D01*
X158549554Y-113884745D01*
X158511459Y-113808555D01*
X158473363Y-113770460D01*
X158397173Y-113732364D01*
X158244792Y-113732364D01*
X158168601Y-113770460D01*
X158130506Y-113808555D01*
X158092411Y-113884745D01*
X158092411Y-113922840D01*
X158130506Y-113999031D01*
X158168601Y-114037126D01*
X158244792Y-114075221D01*
X158397173Y-114075221D01*
X158473363Y-114113317D01*
X158511459Y-114151412D01*
X158549554Y-114227602D01*
X158549554Y-114379983D01*
X158511459Y-114456174D01*
X158473363Y-114494269D01*
X158397173Y-114532364D01*
X158244792Y-114532364D01*
X158168601Y-114494269D01*
X158130506Y-114456174D01*
X158092411Y-114379983D01*
X158092411Y-114227602D01*
X158130506Y-114151412D01*
X158168601Y-114113317D01*
X158244792Y-114075221D01*
X166840456Y-93393815D02*
G75*
G03*
X166840456Y-93393815I-818436J0D01*
G01*
X152138354Y-96195360D02*
G75*
G03*
X152138354Y-96195360I-608594J0D01*
G01*
M02*
